<ttFont>
          <CharString index="0">
            -93 callsubr
            110 -118 -286 vlineto
            163 callgsubr
            return
          </CharString>
          <CharString index="1">
            -104 callgsubr
            14 17 2 16 55 callgsubr
            return
          </CharString>
          <CharString index="2">
            -2 -4 -20 104 callgsubr
            -11 -67 callgsubr
            11 20 43 6 6 -1 -1 2 vhcurveto
            101 vlineto
            -2 -12 3 -15 hhcurveto
            return
          </CharString>
          <CharString index="3">
            rmoveto
            -100 callsubr
            37 hlineto
            3 -8 6 -25 -31 vvcurveto
            return
          </CharString>
          <CharString index="4">
            rmoveto
            97 -54 57 -116 -117 -53 -57 -97 -16 2 -17 2 -11 247 callsubr
            -2 10 -2 12 16 vvcurveto
            28 9 23 43 43 9 -21 -28 vhcurveto
            -122 vlineto
            -28 -9 -20 -43 -24 -22 6 2 -6 vhcurveto
            53 -118 -225 vlineto
            -100 59 -78 132 59 42 9 12 36 vhcurveto
            180 callgsubr
            -31 57 callgsubr
            65 vlineto
            -3 6 28 -6 30 hhcurveto
            109 49 51 97 hvcurveto
            return
          </CharString>
          <CharString index="5">
            38 callgsubr
            -116 70 -77 148 44 54 7 11 37 vhcurveto
            111 vlineto
            -14 -35 -42 -8 -48 hhcurveto
            -82 -33 31 57 hvcurveto
            50 vlineto
            -80 callgsubr
            return
          </CharString>
          <CharString index="6">
            -33 callgsubr
            -99 callgsubr
            return
          </CharString>
          <CharString index="7">
            120 callsubr
            -38 -89 callsubr
            38 vhcurveto
            return
          </CharString>
          <CharString index="8">
            vlineto
            -91 callgsubr
            return
          </CharString>
          <CharString index="9">
            322 callsubr
            7 -29 90 callgsubr
            return
          </CharString>
          <CharString index="10">
            -162 vlineto
            -26 callsubr
            27 21 -25 callsubr
            -17 -20 -1 -21 68 callsubr
            return
          </CharString>
          <CharString index="11">
            294 callsubr
            91 30 callsubr
            return
          </CharString>
          <CharString index="12">
            166 -16 callsubr
            -20 18 35 hvcurveto
            142 vlineto
            34 19 18 45 71 callsubr
            return
          </CharString>
          <CharString index="13">
            -97 45 -54 113 113 44 54 97 vhcurveto
            return
          </CharString>
          <CharString index="14">
            0 9 -93 callgsubr
            return
          </CharString>
          <CharString index="15">
            rmoveto
            94 vlineto
            34 19 20 39 39 20 -20 -34 vhcurveto
            -94 vlineto
            -240 -178 rmoveto
            -108 60 -59 142 76 34 10 8 31 vhcurveto
            113 vlineto
            -6 -22 -49 -13 -58 hhcurveto
            -70 -21 20 45 hvcurveto
            69 235 194 vlineto
            96 -51 282 callsubr
            -55 -64 -96 vhcurveto
            endchar
          </CharString>
          <CharString index="16">
            -80 callsubr
            42 8 -20 -29 vhcurveto
            316 callsubr
            121 vlineto
            29 8 20 39 return
          </CharString>
          <CharString index="17">
            -94 callsubr
            113 -9 callsubr
            return
          </CharString>
          <CharString index="18">
            -8 19 28 vhcurveto
            126 -29 callsubr
            return
          </CharString>
          <CharString index="19">
            -94 hlineto
            -49 callgsubr
            return
          </CharString>
          <CharString index="20">
            196 callsubr
            384 vlineto
            -57 callgsubr
            6 hhcurveto
            106 -18 callsubr
            vlineto
            endchar
          </CharString>
          <CharString index="21">
            -99 274 212 callsubr
            -74 callsubr
            return
          </CharString>
          <CharString index="22">
            rmoveto
            -29 12 -20 40 39 13 20 29 30 -13 20 -39 228 callsubr
            160 hmoveto
            -29 12 -20 40 40 13 20 29 30 -13 20 -40 228 callsubr
            return
          </CharString>
          <CharString index="23">
            rmoveto
            -96 callsubr
            return
          </CharString>
          <CharString index="24">
            -65 116 -66 callsubr
            37 -12 callsubr
            return
          </CharString>
          <CharString index="25">
            rmoveto
            -286 vlineto
            -95 56 -64 126 126 56 64 95 vhcurveto
            286 vlineto
            95 -56 282 callsubr
            -56 -64 -95 vhcurveto
            238 -4 rmoveto
            -278 vlineto
            -32 -17 -22 -39 -39 -18 22 32 vhcurveto
            278 vlineto
            32 18 22 39 39 17 -22 -32 vhcurveto
            return
          </CharString>
          <CharString index="26">
            -28 -9 -21 -43 -15 -13 3 3 -12 vhcurveto
            return
          </CharString>
          <CharString index="27">
            hhcurveto
            -55 -30 -103 callgsubr
            return
          </CharString>
          <CharString index="28">
            97 -46 53 -111 -110 -50 -53 -97 vhcurveto
            -39 vlineto
            -52 10 -32 24 -15 vhcurveto
            -42 -19 -13 -38 -44 vvcurveto
            -77 vlineto
            -96 49 -56 107 36 23 4 2 5 vhcurveto
            -58 112 245 -112 -84 vlineto
            -1 -4 -19 -5 -25 hhcurveto
            -41 -10 20 28 hvcurveto
            62 vlineto
            36 5 24 47 vhcurveto
            return
          </CharString>
          <CharString index="29">
            vlineto
            -101 callsubr
            return
          </CharString>
          <CharString index="30">
            rmoveto
            54 296 56 -296 rlineto
            53 -276 rmoveto
            122 hlineto
            -139 687 rlineto
            -178 hlineto
            -141 -687 283 callsubr
            31 168 328 callgsubr
            endchar
          </CharString>
          <CharString index="31">
            -98 50 -51 109 30 22 3 4 16 vhcurveto
            -74 118 269 -118 -91 vlineto
            -4 -15 -14 -3 -22 hhcurveto
            -44 -14 18 31 hvcurveto
            126 102 callsubr
            return
          </CharString>
          <CharString index="32">
            -72 callgsubr
            vlineto
            endchar
          </CharString>
          <CharString index="33">
            -116 -6 callgsubr
            116 115 47 55 88 vhcurveto
            141 return
          </CharString>
          <CharString index="34">
            -22 -29 -20 hvcurveto
            24 -14 -34 28 return
          </CharString>
          <CharString index="35">
            -73 callsubr
            -63 hhcurveto
            return
          </CharString>
          <CharString index="36">
            rmoveto
            -61 vlineto
            -74 38 -43 56 -32 vhcurveto
            110 -59 rlineto
            36 -20 12 -14 -34 vvcurveto
            -23 vlineto
            -34 -27 -25 -69 -58 -56 13 14 -34 vhcurveto
            -123 vlineto
            -8 21 59 -14 69 hhcurveto
            150 73 60 101 hvcurveto
            60 vlineto
            66 -28 39 -54 29 vhcurveto
            -114 65 rlineto
            -42 23 -12 15 40 vvcurveto
            24 vlineto
            34 17 23 62 58 44 -10 -14 33 vhcurveto
            122 vlineto
            8 -21 -48 12 -69 hhcurveto
            -142 -64 -61 -99 hvcurveto
            return
          </CharString>
          <CharString index="37">
            rmoveto
            -28 vlineto
            -66 31 -35 44 -27 vhcurveto
            73 -43 rlineto
            47 -29 12 -10 -26 vvcurveto
            -12 vlineto
            -30 -18 -19 -80 -44 -43 8 7 -23 vhcurveto
            -115 vlineto
            -8 32 35 -6 60 hhcurveto
            141 67 55 103 hvcurveto
            26 vlineto
            63 -34 35 -48 30 vhcurveto
            -83 50 rlineto
            -36 22 -9 10 24 vvcurveto
            14 vlineto
            31 13 18 67 42 49 -10 -6 19 vhcurveto
            113 vlineto
            9 -29 -49 7 -41 hhcurveto
            -142 -53 -55 -100 hvcurveto
            return
          </CharString>
          <CharString index="38">
            vlineto
            -116 56 -58 136 27 21 2 2 16 vhcurveto
            -56 callgsubr
          </CharString>
          <CharString index="39">
            rmoveto
            -452 vlineto
            -5 -8 -25 -13 -30 hhcurveto
            -30 -14 16 27 hvcurveto
            427 -129 -450 vlineto
            -87 46 -48 86 57 39 20 8 15 vhcurveto
            -27 121 584 vlineto
            return
          </CharString>
          <CharString index="40">
            vlineto
            -75 callsubr
          </CharString>
          <CharString index="41">
            397 vlineto
            2 6 23 4 20 49 callsubr
            -7 -14 -32 12 callsubr
            return
          </CharString>
          <CharString index="42">
            -29 vlineto
            -97 57 -38 105 vhcurveto
            -52 callsubr
            return
          </CharString>
          <CharString index="43">
            9 12 4 callgsubr
            -13 -35 return
          </CharString>
          <CharString index="44">
            rmoveto
            146 -137 rlineto
            -10 vlineto
            -3 -18 -19 -4 -32 hhcurveto
            -58 -19 26 38 hvcurveto
            146 40 rmoveto
            -135 124 rlineto
            15 11 20 9 35 hhcurveto
            30 21 -6 -6 18 hvcurveto
            return
          </CharString>
          <CharString index="45">
            vlineto
            -60 callsubr
            return
          </CharString>
          <CharString index="46">
            rmoveto
            -518 vlineto
            -38 -20 -25 -50 -51 -18 25 38 vhcurveto
            518 -127 -524 vlineto
            -101 62 355 callsubr
            63 72 101 vhcurveto
            524 vlineto
            return
          </CharString>
          <CharString index="47">
            80 callsubr
            vhcurveto
            -58 callgsubr
            return
          </CharString>
          <CharString index="48">
            129 37 32 -43 callsubr
            return
          </CharString>
          <CharString index="49">
            -54 116 -39 callgsubr
            return
          </CharString>
          <CharString index="50">
            rmoveto
            -222 vlineto
            -171 20 -84 -16 vvcurveto
            -6 16 -21 75 -53 136 -104 266 rcurveline
            -129 -687 125 229 hlineto
            171 -19 81 -1 16 vhcurveto
            6 -16 23 -75 53 -136 106 -270 rcurveline
            126 687 hlineto
            return
          </CharString>
          <CharString index="51">
            39 16 10 43 vhcurveto
            66 104 -70 220 callgsubr
            133 vlineto
            37 11 17 0 vhcurveto
            151 -67 hlineto
            -37 -26 -9 0 hvcurveto
            -98 vlineto
            0 20 9 33 46 18 -19 -48 vhcurveto
            return
          </CharString>
          <CharString index="52">
            -162 -69 callsubr
          </CharString>
          <CharString index="53">
            -102 66 -68 132 61 return
          </CharString>
          <CharString index="54">
            10 callsubr
            50 vlineto
            -80 callgsubr
            259 -74 hlineto
            1 -6 -27 5 -31 98 callgsubr
            36 -51 116 34 20 5 2 5 vhcurveto
            -114 255 callgsubr
          </CharString>
          <CharString index="55">
            -5 callgsubr
            -53 -49 8 9 -39 232 callsubr
            -10 44 42 -7 55 hhcurveto
            136 65 51 106 hvcurveto
            return
          </CharString>
          <CharString index="56">
            rmoveto
            -6 vlineto
            -24 -5 -11 -17 vhcurveto
            -25 -29 39 -51 hhcurveto
            -56 -26 -40 -58 hvcurveto
            -5 70 5 vlineto
            24 6 11 16 vhcurveto
            26 31 -39 48 hhcurveto
            55 27 38 58 hvcurveto
            8 vlineto
            endchar
          </CharString>
          <CharString index="57">
            rmoveto
            -43 -113 rlineto
            69 hlineto
            71 113 rlineto
            return
          </CharString>
          <CharString index="58">
            rmoveto
            -99 247 -69 vlineto
            3 -13 -28 6 -32 hhcurveto
            -114 -46 -56 -96 hvcurveto
            -146 vlineto
            -9 0 -9 1 -8 vhcurveto
            -7 -29 -31 -4 -33 hhcurveto
            -60 -32 14 49 hvcurveto
            34 vlineto
            28 10 19 60 callsubr
            41 167 callsubr
            return
          </CharString>
          <CharString index="59">
            -38 callsubr
            227 callsubr
            return
          </CharString>
          <CharString index="60">
            rmoveto
            -467 vlineto
            -9 -37 -32 -3 -49 hhcurveto
            -103 -35 31 73 hvcurveto
            16 16 vlineto
            123 53 53 101 hvcurveto
            58 vlineto
            98 -42 54 -107 -107 -43 -60 -94 -19 4 195 callgsubr
            19 17 vvcurveto
            30 6 19 34 35 4 -17 -30 vhcurveto
            -38 vlineto
            -52 -22 -18 -63 vhcurveto
            return
          </CharString>
          <CharString index="61">
            -40 callgsubr
            -127 hlineto
            return
          </CharString>
          <CharString index="62" raw="1">
            07601d0b   
          </CharString>
          <CharString index="63">
            327 callsubr
            -27 callgsubr
            return
          </CharString>
          <CharString index="64">
            4 5 22 55 callsubr
            86 return
          </CharString>
          <CharString index="65">
            0 9 -17 -37 vvcurveto
            -128 vlineto
            -28 -9 -21 -42 -16 -24 callgsubr
            45 9 12 33 vhcurveto
            13 callsubr
            -34 -35 -10 -52 -66 callgsubr
            19 -2 22 hhcurveto
            return
          </CharString>
          <CharString index="66">
            rmoveto
            -99 111 vlineto
            -46 callsubr
            -25 4 -22 7 -19 vhcurveto
            -8 -37 -40 -6 -43 hhcurveto
            -104 -36 31 73 hvcurveto
            16 16 vlineto
            123 54 33 callsubr
            -16 3 195 callgsubr
            19 19 3 callgsubr
            return
          </CharString>
          <CharString index="67">
            rmoveto
            52 callgsubr
            -494 5 callsubr
            endchar
          </CharString>
          <CharString index="68">
            -99 292 -62 -44 hlineto
            -117 -53 -39 -97 hvcurveto
            -9 vlineto
            -96 61 -39 109 vhcurveto
            9 hlineto
            39 -2 8 -19 -25 vvcurveto
            -26 vlineto
            -30 -11 -17 -44 -25 -22 3 2 -8 vhcurveto
            56 -116 -241 116 84 vlineto
            -2 7 31 -5 37 hhcurveto
            return
          </CharString>
          <CharString index="69">
            -63 callgsubr
            154 vlineto
            return
          </CharString>
          <CharString index="70">
            rmoveto
            -687 334 110 -207 182 179 111 -179 173 207 111 vlineto
            return
          </CharString>
          <CharString index="71">
            248 callsubr
            -35 -5 -49 hhcurveto
            -60 -31 16 50 hvcurveto
            return
          </CharString>
          <CharString index="72">
            rmoveto
            30 9 18 43 43 10 -18 -30 vhcurveto
            -92 vlineto
            -30 -10 -18 -43 -43 -9 18 30 vhcurveto
            return
          </CharString>
          <CharString index="73">
            43 vhcurveto
            46 109 -42 hlineto
            -42 return
          </CharString>
          <CharString index="74">
            -74 26 -49 63 -18 vhcurveto
            -117 -185 rlineto
            130 346 callsubr
            384 hlineto
            0 20 8 26 42 11 -19 -28 vhcurveto
            -127 vlineto
            -34 -9 -14 -40 1 vhcurveto
            -110 vlineto
            -1 4 7 0 6 hhcurveto
            106 44 70 callsubr
            -47 57 -108 -36 219 callgsubr
          </CharString>
          <CharString index="75">
            rmoveto
            -30 -10 -18 -43 -43 -9 18 30 vhcurveto
            92 vlineto
            30 9 18 43 43 10 -18 -30 vhcurveto
            -212 -92 rmoveto
            -99 36 -49 123 123 37 49 99 vhcurveto
            92 vlineto
            97 -37 51 -123 324 callsubr
            vhcurveto
            endchar
          </CharString>
          <CharString index="76">
            102 vlineto
            -13 -43 -34 -6 -57 hhcurveto
            -64 -32 19 42 hvcurveto
            25 6 callsubr
            return
          </CharString>
          <CharString index="77">
            hhcurveto
            179 callsubr
            hvcurveto
            -95 131 callsubr
          </CharString>
          <CharString index="78">
            vlineto
            28 8 18 return
          </CharString>
          <CharString index="79">
            67 callgsubr
            -17 4 -24 84 callgsubr
            -4 20 18 49 callgsubr
            return
          </CharString>
          <CharString index="80">
            18 35 hvcurveto
            142 vlineto
            34 20 18 44 25 21 -4 -3 14 vhcurveto
            return
          </CharString>
          <CharString index="81">
            -116 56 -58 136 return
          </CharString>
          <CharString index="82">
            2 2 16 103 callgsubr
            return
          </CharString>
          <CharString index="83">
            176 callgsubr
            74 30 callsubr
            return
          </CharString>
          <CharString index="84">
            -1 callsubr
            36 return
          </CharString>
          <CharString index="85">
            19 0 vhcurveto
            return
          </CharString>
          <CharString index="86">
            rmoveto
            -80 callgsubr
            367 99 -750 38 callgsubr
            -116 70 -77 148 44 54 7 11 37 vhcurveto
            111 vlineto
            -14 -35 -42 -8 -48 hhcurveto
            -82 -33 31 57 hvcurveto
            459 65 -32 callsubr
          </CharString>
          <CharString index="87">
            rmoveto
            -28 -7 -20 -43 -42 -8 204 callgsubr
            100 vlineto
            return
          </CharString>
          <CharString index="88">
            -55 callgsubr
            196 callsubr
            return
          </CharString>
          <CharString index="89">
            45 69 callsubr
            -108 -35 -26 -9 0 vhcurveto
            74 return
          </CharString>
          <CharString index="90">
            -62 callgsubr
            -518 182 callsubr
            77 30 callsubr
            return
          </CharString>
          <CharString index="91">
            119 callgsubr
            -27 hhcurveto
            -44 return
          </CharString>
          <CharString index="92">
            70 -21 -42 23 -50 hhcurveto
            -11 -11 -1 -2 -10 hvcurveto
            -98 vlineto
            1 5 5 0 5 hhcurveto
            22 9 -13 -30 11 hvcurveto
            29 -87 rlineto
            -18 hlineto
            -101 140 rlineto
            62 -45 -36 28 -60 hhcurveto
            -15 -13 307 callsubr
            -97 vlineto
            1 10 8 0 8 hhcurveto
            31 20 -13 -28 23 hvcurveto
            67 -90 rlineto
            return
          </CharString>
          <CharString index="93">
            vlineto
            35 132 callgsubr
            return
          </CharString>
          <CharString index="94">
            -99 279 hlineto
            -107 callsubr
            return
          </CharString>
          <CharString index="95">
            112 callsubr
            -46 51 -105 -33 118 callsubr
            return
          </CharString>
          <CharString index="96">
            -51 callgsubr
            -11 -21 -42 -16 95 callgsubr
            return
          </CharString>
          <CharString index="97">
            -99 523 -403 hlineto
            -2 -4 -20 -7 -26 hhcurveto
            -43 -10 20 30 hvcurveto
            149 vlineto
            30 10 20 43 6 7 -1 -1 2 vhcurveto
            101 vlineto
            -2 -13 53 callgsubr
            5 vhcurveto
            -65 115 389 vlineto
            2 6 26 4 20 hhcurveto
            return
          </CharString>
          <CharString index="98">
            vlineto
            27 -6 28 return
          </CharString>
          <CharString index="99">
            -59 callgsubr
            159 vlineto
            42 24 22 50 9 18 -1 -1 21 vhcurveto
            -212 vlineto
            163 callgsubr
            return
          </CharString>
          <CharString index="100">
            hhcurveto
            -43 -12 18 30 hvcurveto
            92 vlineto
            29 12 19 43 25 20 -5 -1 return
          </CharString>
          <CharString index="101">
            rmoveto
            26 183 callsubr
            452 vlineto
            9 16 22 8 26 hhcurveto
            26 13 -12 -27 hvcurveto
            -430 130 459 vlineto
            87 -54 41 -74 -48 -43 -18 -11 -21 vhcurveto
            return
          </CharString>
          <CharString index="102">
            hhcurveto
            -68 -12 29 40 hvcurveto
            154 vlineto
            29 8 20 return
          </CharString>
          <CharString index="103">
            rmoveto
            68 hlineto
            38 18 -15 -39 hvcurveto
            -107 vlineto
            -41 -15 -18 -41 vhcurveto
            -68 hlineto
            276 -358 rmoveto
            -108 267 rlineto
            58 22 25 50 76 vvcurveto
            119 vlineto
            100 -63 53 -107 vhcurveto
            -208 -687 127 256 42 hlineto
            95 -256 rlineto
            endchar
          </CharString>
          <CharString index="104">
            -37 vvcurveto
            -113 322 callsubr
            7 282 callgsubr
            28 23 66 callsubr
            return
          </CharString>
          <CharString index="105">
            rmoveto
            -5 -23 -29 22 callsubr
            return
          </CharString>
          <CharString index="106">
            9 callgsubr
            37 return
          </CharString>
          <CharString index="107">
            51 302 161 rmoveto
            -39 -18 -22 -50 -49 -18 23 38 vhcurveto
            68 vlineto
            39 18 25 49 50 18 -26 -38 vhcurveto
            -134 297 rmoveto
            39 17 22 49 50 17 -23 -38 vhcurveto
            -71 vlineto
            -39 -17 -24 -50 -49 -17 25 38 vhcurveto
            259 73 rmoveto
            101 -59 68 -134 -134 -57 -68 -101 vhcurveto
            -69 vlineto
            -54 16 -38 36 -25 vhcurveto
            -36 -24 -17 -38 -54 vvcurveto
            -67 vlineto
            -101 58 -68 134 134 59 68 101 vhcurveto
            67 vlineto
            54 -17 38 -36 24 vhcurveto
            36 24 17 39 54 vvcurveto
            endchar
          </CharString>
          <CharString index="108">
            hhcurveto
            -77 -62 callgsubr
            return
          </CharString>
          <CharString index="109">
            rmoveto
            151 -124 rlineto
            -17 -11 -22 -9 -37 hhcurveto
            -62 317 callgsubr
            return
          </CharString>
          <CharString index="110">
            21 28 hvcurveto
            307 101 vlineto
            return
          </CharString>
          <CharString index="111">
            rmoveto
            97 -53 45 -117 vhcurveto
            -23 hlineto
            -35 -9 16 25 hvcurveto
            15 280 callsubr
            194 99 -594 305 callsubr
            hlineto
            186 callgsubr
            -27 344 callsubr
            23 hlineto
            43 9 -18 -26 hvcurveto
            -15 vlineto
            -42 -31 -7 -52 -49 -52 7 9 -41 vhcurveto
            -107 vlineto
            -9 41 43 -8 58 hhcurveto
            136 65 51 106 hvcurveto
            -8 182 rmoveto
            336 callgsubr
            -51 -15 -29 -36 vhcurveto
            endchar
          </CharString>
          <CharString index="112">
            305 callsubr
            hlineto
            -109 -53 -39 -97 hvcurveto
            -65 callsubr
            return
          </CharString>
          <CharString index="113">
            vlineto
            28 11 19 42 vhcurveto
            43 hlineto
            37 7 -13 -31 hvcurveto
            -20 105 30 vlineto
            88 -37 44 -98 vhcurveto
            -66 hlineto
            28 callsubr
            return
          </CharString>
          <CharString index="114">
            102 callgsubr
            -51 hhcurveto
            -65 -33 207 callgsubr
            return
          </CharString>
          <CharString index="115">
            -69 hlineto
            3 -14 -28 6 -32 hhcurveto
            return
          </CharString>
          <CharString index="116">
            hlineto
            12 callgsubr
            return
          </CharString>
          <CharString index="117">
            hhcurveto
            -82 -33 31 57 hvcurveto
            return
          </CharString>
          <CharString index="118">
            449 687 rmoveto
            -308 -687 rlineto
            87 hlineto
            307 687 rlineto
            -321 -156 rmoveto
            -49 -10 -33 -35 -36 -10 33 49 48 10 33 36 35 10 -32 -49 vhcurveto
            -179 hmoveto
            -95 36 -69 98 98 37 69 95 95 -37 68 -98 -98 -36 -68 -95 vhcurveto
            516 -374 rmoveto
            -49 -10 -33 -35 -35 -10 33 49 48 10 33 35 35 10 -32 -49 vhcurveto
            -179 hmoveto
            -95 37 -69 98 98 36 69 95 95 -36 68 -98 -98 -37 -68 -95 vhcurveto
            return
          </CharString>
          <CharString index="119">
            -19 callgsubr
            106 return
          </CharString>
          <CharString index="120">
            109 vlineto
            -13 return
          </CharString>
          <CharString index="121">
            31 callgsubr
            266 callsubr
            return
          </CharString>
          <CharString index="122">
            -117 66 -40 116 33 28 4 5 15 vhcurveto
            -67 112 566 86 return
          </CharString>
          <CharString index="123">
            146 81 callgsubr
            -108 60 -60 128 -8 vhcurveto
            -126 -96 rlineto
            -4 vlineto
            154 -13 119 112 rlineto
            109 vlineto
            -11 -31 -39 -7 -37 10 callsubr
            return
          </CharString>
          <CharString index="124">
            rmoveto
            -28 -5 -20 -40 -39 -6 21 27 vhcurveto
            54 vlineto
            28 6 20 39 40 5 -20 -28 vhcurveto
            return
          </CharString>
          <CharString index="125">
            -88 125 callsubr
            88 vhcurveto
            79 callsubr
            return
          </CharString>
          <CharString index="126">
            37 42 513 rmoveto
            -350 vlineto
            -101 55 355 callsubr
            55 72 101 vhcurveto
            128 vlineto
            97 -57 57 -105 -47 -23 -5 -7 -19 vhcurveto
            66 vlineto
            41 21 34 64 58 43 -9 -14 34 vhcurveto
            121 vlineto
            8 -21 -48 12 -69 hhcurveto
            -154 -55 -81 -98 hvcurveto
            251 -234 rmoveto
            -114 vlineto
            -38 -12 -25 -50 -50 -12 26 37 vhcurveto
            159 vlineto
            4 7 25 8 32 hhcurveto
            39 21 -16 -41 hvcurveto
            endchar
          </CharString>
          <CharString index="127">
            387 rmoveto
            -134 vlineto
            -281 -307 rlineto
            -3 140 vlineto
            70 73 34 36 28 31 12 32 rlinecurve
            2 -1 rlineto
            -7 -43 2 -47 -13 vvcurveto
            -11 271 callsubr
            -674 -99 470 -78 -343 -108 102 vlineto
            63 callsubr
            -55 -98 callsubr
            66 -14 callsubr
            return
          </CharString>
          <CharString index="128">
            rmoveto
            -41 -214 rlineto
            -27 -151 -10 -120 0 vvcurveto
            0 -7 119 -30 155 vhcurveto
            -42 211 rlineto
            -126 hlineto
            120 -584 rlineto
            47 hlineto
            -29 -149 rlineto
            124 hlineto
            144 733 rlineto
            return
          </CharString>
          <CharString index="129">
            -3 -33 1 callsubr
            return
          </CharString>
          <CharString index="130">
            hlineto
            81 callsubr
          </CharString>
          <CharString index="131">
            hlineto
            38 -26 -46 18 -62 hhcurveto
            -177 112 callgsubr
            -108 vlineto
            -94 callsubr
            93 -9 callsubr
            -2 5 vhcurveto
            37 hlineto
            38 15 -18 -34 hvcurveto
            return
          </CharString>
          <CharString index="132">
            164 callsubr
            -26 callsubr
            return
          </CharString>
          <CharString index="133">
            rmoveto
            -46 -113 rlineto
            61 hlineto
            74 113 rlineto
            -199 hmoveto
            -46 -113 rlineto
            61 hlineto
            74 113 rlineto
            return
          </CharString>
          <CharString index="134">
            hvcurveto
            -277 -99 278 -62 -50 hlineto
            -109 -54 -39 -97 hvcurveto
            -9 vlineto
            -96 58 -39 105 vhcurveto
            25 hlineto
            42 10 -20 -26 hvcurveto
            -22 vlineto
            -31 -15 -16 -44 -25 -24 5 2 -7 vhcurveto
            53 -116 -246 116 88 vlineto
            -1 6 31 -7 35 hhcurveto
            119 42 52 97 hvcurveto
            30 vlineto
            97 -54 45 -116 vhcurveto
            -25 hlineto
            -34 -10 13 24 hvcurveto
            3 vlineto
            25 9 13 35 vhcurveto
            return
          </CharString>
          <CharString index="135">
            -32 -12 11 23 hvcurveto
            10 287 callgsubr
            33 vhcurveto
            return
          </CharString>
          <CharString index="136">
            rmoveto
            -99 248 -69 vlineto
            3 -13 -28 6 -32 hhcurveto
            -114 -46 -56 -96 hvcurveto
            -146 vlineto
            -8 vlineto
            -8 -36 -41 -6 -44 hhcurveto
            -104 -36 31 73 hvcurveto
            16 16 vlineto
            123 54 33 callsubr
            -16 3 195 callgsubr
            22 16 3 callgsubr
            return
          </CharString>
          <CharString index="137">
            76 callsubr
            49 hlineto
            return
          </CharString>
          <CharString index="138">
            hhcurveto
            118 68 callgsubr
            return
          </CharString>
          <CharString index="139">
            rmoveto
            -4 139 vlineto
            78 79 53 59 31 60 14 34 rlinecurve
            117 vlineto
            -4 373 rmoveto
            -520 -99 520 hlineto
            1 -78 rmoveto
            -394 167 callgsubr
            -58 vlineto
            -41 -26 -19 -47 -32 -24 4 6 -29 vhcurveto
            -107 vlineto
            -7 28 24 -3 307 callgsubr
            53 110 hvcurveto
            69 -14 callsubr
            172 hlineto
            endchar
          </CharString>
          <CharString index="140">
            53 101 hvcurveto
            58 vlineto
            98 -42 54 -108 -107 -42 -59 -98 return
          </CharString>
          <CharString index="141">
            97 -50 56 -114 -115 -49 -56 -97 return
          </CharString>
          <CharString index="142">
            rmoveto
            -42 -126 -30 -96 -15 -56 -13 -56 rlinecurve
            -12 56 -14 55 -31 95 -43 128 rcurveline
            -131 hlineto
            165 -469 rlineto
            -218 129 218 vlineto
            165 469 rlineto
            return
          </CharString>
          <CharString index="143">
            51 callsubr
            vlineto
            endchar
          </CharString>
          <CharString index="144">
            185 callsubr
            -52 vlineto
            -94 65 -61 139 58 47 12 12 37 vhcurveto
            -21 26 37 -11 53 hhcurveto
            33 27 5 4 13 hvcurveto
            -66 91 callsubr
          </CharString>
          <CharString index="145">
            rmoveto
            -51 -15 123 callgsubr
            -14 29 -50 hvcurveto
            return
          </CharString>
          <CharString index="146">
            rmoveto
            272 99 -687 -44 callsubr
            391 vlineto
            4 16 24 2 24 hhcurveto
            45 18 -16 -34 hvcurveto
            -4 106 8 vlineto
            91 -43 57 -116 -28 -25 -2 -4 -21 vhcurveto
            -118 -277 rmoveto
            279 callgsubr
          </CharString>
          <CharString index="147">
            -99 272 -72 -21 hlineto
            -118 -57 -58 -104 hvcurveto
            -165 vlineto
            -63 callgsubr
            return
          </CharString>
          <CharString index="148">
            -7 -22 -36 -9 -42 hhcurveto
            -58 -22 15 43 hvcurveto
            244 vlineto
            42 22 16 58 41 36 -9 -6 22 vhcurveto
            117 vlineto
            9 -30 -31 6 -58 hhcurveto
            -126 -62 -57 -108 hvcurveto
            return
          </CharString>
          <CharString index="149">
            -85 callsubr
            endchar
          </CharString>
          <CharString index="150">
            hhcurveto
            -55 -30 25 callsubr
            22 30 2 1 13 103 callgsubr
            -14 -28 0 -17 14 callsubr
            return
          </CharString>
          <CharString index="151">
            rmoveto
            -47 -23 -16 -28 -43 hvcurveto
            41 183 callsubr
            441 vlineto
            16 27 31 11 42 hhcurveto
            26 119 hlineto
            return
          </CharString>
          <CharString index="152">
            -362 -84 callsubr
            return
          </CharString>
          <CharString index="153">
            268 callsubr
            115 266 callgsubr
            -36 28 -59 hhcurveto
            -16 -12 307 callsubr
            214 -98 rmoveto
            1 5 6 0 4 hhcurveto
            23 9 -13 -30 10 hvcurveto
            30 -87 rlineto
            101 hlineto
            -42 137 rlineto
            70 -22 -41 23 -51 hhcurveto
            -11 -10 -1 -2 -11 hvcurveto
            return
          </CharString>
          <CharString index="154">
            -19 -35 vvcurveto
            -49 48 callsubr
            return
          </CharString>
          <CharString index="155">
            vlineto
            -46 12 -31 31 -19 vhcurveto
            -34 -15 -15 -33 -52 vvcurveto
            return
          </CharString>
          <CharString index="156">
            hhcurveto
            43 11 -20 -30 hvcurveto
            -132 vlineto
            -32 return
          </CharString>
          <CharString index="157">
            rmoveto
            -559 -99 139 -193 309 callgsubr
            1 32 -3 16 hhcurveto
            97 60 52 103 hvcurveto
            203 98 -241 vlineto
            -265 -325 rlineto
            138 hlineto
            58 69 37 42 34 44 15 30 rlinecurve
            2 hlineto
            -7 -26 -6 -56 -62 vvcurveto
            -41 340 callsubr
          </CharString>
          <CharString index="158">
            -76 28 -49 67 -18 vhcurveto
            -127 -192 rlineto
            140 callgsubr
            return
          </CharString>
          <CharString index="159">
            15 callsubr
            vlineto
            endchar
          </CharString>
          <CharString index="160">
            310 callsubr
            53 vlineto
            16 13 -1 -4 10 hvcurveto
            -55 vlineto
            -122 93 145 callsubr
            return
          </CharString>
          <CharString index="161">
            91 260 callsubr
            -21 3 -20 178 callgsubr
            239 callsubr
            -88 -49 vlineto
            return
          </CharString>
          <CharString index="162">
            vhcurveto
            -95 -97 callgsubr
            return
          </CharString>
          <CharString index="163">
            rmoveto
            -29 12 -20 41 39 13 20 29 30 -13 20 -39 -41 -12 -20 -30 vhcurveto
            endchar
          </CharString>
          <CharString index="164">
            10 callsubr
            50 vlineto
            -3 16 18 -2 17 hhcurveto
            109 323 callgsubr
            -8 -22 callsubr
            260 -74 hlineto
            1 -7 -26 5 -32 98 callgsubr
            37 -51 115 34 20 314 callgsubr
          </CharString>
          <CharString index="165">
            482 rmoveto
            2 -6 -21 5 -28 hhcurveto
            -57 -28 -73 callsubr
            return
          </CharString>
          <CharString index="166">
            rmoveto
            -76 vlineto
            7 31 27 5 47 hhcurveto
            33 9 -12 -23 hvcurveto
            -26 vlineto
            -27 -2 -12 -24 -17 vhcurveto
            -74 -52 rlineto
            -38 -27 -19 -23 -55 vvcurveto
            -106 238 76 -155 25 vlineto
            31 4 6 36 25 vhcurveto
            68 50 rlineto
            33 23 15 28 42 vvcurveto
            41 vlineto
            69 -38 39 -83 -63 -31 -7 -4 -14 vhcurveto
            return
          </CharString>
          <CharString index="167">
            -34 callsubr
            -9 19 28 hvcurveto
            return
          </CharString>
          <CharString index="168">
            hhcurveto
            -45 -13 21 28 hvcurveto
            return
          </CharString>
          <CharString index="169">
            rmoveto
            226 callsubr
            186 99 -491 -99 187 -63 vlineto
            91 callgsubr
            -114 -2 37 callgsubr
            endchar
          </CharString>
          <CharString index="170">
            0 11 -17 -37 vvcurveto
            return
          </CharString>
          <CharString index="171">
            44 42 524 rmoveto
            -361 vlineto
            -101 55 355 callsubr
            55 72 101 vhcurveto
            361 vlineto
            101 -55 72 -134 -134 -55 -72 -101 vhcurveto
            251 -5 rmoveto
            -351 vlineto
            -39 -12 -25 -50 -50 -12 26 38 vhcurveto
            351 vlineto
            39 12 24 50 50 12 -25 -38 vhcurveto
            endchar
          </CharString>
          <CharString index="172">
            15 48 hvcurveto
            35 -11 callgsubr
            return
          </CharString>
          <CharString index="173">
            -4 38 31 callsubr
            return
          </CharString>
          <CharString index="174">
            -81 -4 callgsubr
            123 return
          </CharString>
          <CharString index="175">
            -5 callsubr
            41 return
          </CharString>
          <CharString index="176">
            70 callsubr
            -48 57 return
          </CharString>
          <CharString index="177">
            51 96 hvcurveto
            141 vlineto
            96 return
          </CharString>
          <CharString index="178">
            25 21 -4 -3 13 vhcurveto
            return
          </CharString>
          <CharString index="179">
            rmoveto
            319 callgsubr
            99 -651 -99 448 130 callgsubr
            endchar
          </CharString>
          <CharString index="180">
            30 42 435 -82 callsubr
            return
          </CharString>
          <CharString index="181">
            rmoveto
            -105 callsubr
            return
          </CharString>
          <CharString index="182">
            61 315 426 rmoveto
            -143 140 rlineto
            143 hlineto
            -94 -223 rmoveto
            -42 -13 19 29 hvcurveto
            90 vlineto
            132 -130 rlineto
            -5 -8 -10 -3 -14 hhcurveto
            -301 322 rmoveto
            -99 83 -175 vlineto
            -42 13 -30 24 -19 vhcurveto
            -23 -19 -14 -29 -44 vvcurveto
            -60 vlineto
            return
          </CharString>
          <CharString index="183">
            191 callgsubr
            42 vhcurveto
            return
          </CharString>
          <CharString index="184">
            204 87 callgsubr
            return
          </CharString>
          <CharString index="185">
            97 callsubr
            -35 30 55 hvcurveto
            34 vlineto
            78 3 40 237 callgsubr
            return
          </CharString>
          <CharString index="186">
            141 90 101 callsubr
            return
          </CharString>
          <CharString index="187">
            -95 36 -52 115 return
          </CharString>
          <CharString index="188">
            -91 callgsubr
            87 71 callgsubr
            hlineto
            endchar
          </CharString>
          <CharString index="189">
            vlineto
            52 callsubr
          </CharString>
          <CharString index="190">
            58 callsubr
            -63 hhcurveto
            return
          </CharString>
          <CharString index="191">
            -99 261 hlineto
            0 11 -16 -38 vvcurveto
            -75 vlineto
            -28 -7 -21 -44 -1 vhcurveto
            -68 -108 61 hlineto
            47 -1 11 -25 -32 vvcurveto
            -61 vlineto
            -41 -29 -16 -51 -41 -38 6 9 -36 vhcurveto
            -109 vlineto
            -8 43 33 -6 41 hhcurveto
            131 65 55 108 hvcurveto
            return
          </CharString>
          <CharString index="192">
            228 callgsubr
            vlineto
            endchar
          </CharString>
          <CharString index="193">
            -2 -4 -20 -7 -26 hhcurveto
            -43 -10 20 30 hvcurveto
            149 32 callgsubr
            return
          </CharString>
          <CharString index="194">
            -62 -45 vlineto
            105 callsubr
            return
          </CharString>
          <CharString index="195">
            65 -42 -42 17 -59 hhcurveto
            -16 -12 307 callsubr
            -97 vlineto
            1 9 9 0 8 hhcurveto
            31 22 -11 -30 20 hvcurveto
            62 -90 rlineto
            return
          </CharString>
          <CharString index="196">
            28 callsubr
            176 161 return
          </CharString>
          <CharString index="197">
            vlineto
            -74 21 -35 66 -51 vhcurveto
            -129 -128 132 -19 83 83 return
          </CharString>
          <CharString index="198">
            119 -35 callgsubr
          </CharString>
          <CharString index="199">
            vhcurveto
            -66 -97 callgsubr
            return
          </CharString>
          <CharString index="200">
            -105 vlineto
            -47 12 -32 24 -20 vhcurveto
            -19 -17 -12 -26 -37 vvcurveto
            -51 vlineto
            -97 51 -46 117 117 55 50 98 vhcurveto
            261 -117 -72 vlineto
            -3 -11 -21 -3 -22 hhcurveto
            -44 -11 17 29 hvcurveto
            97 286 callgsubr
          </CharString>
          <CharString index="201">
            123 callsubr
            305 return
          </CharString>
          <CharString index="202">
            vlineto
            -54 callsubr
            45 9 12 33 vhcurveto
            7 callsubr
            87 hlineto
            endchar
          </CharString>
          <CharString index="203">
            hhcurveto
            115 47 55 88 hvcurveto
            231 callsubr
          </CharString>
          <CharString index="204">
            204 rmoveto
            126 callgsubr
            return
          </CharString>
          <CharString index="205">
            -99 77 -299 hlineto
            -96 44 -53 120 return
          </CharString>
          <CharString index="206">
            -99 91 hlineto
            26 callgsubr
            return
          </CharString>
          <CharString index="207">
            175 callsubr
            305 callgsubr
            return
          </CharString>
          <CharString index="208">
            -341 356 callsubr
            return
          </CharString>
          <CharString index="209">
            221 callgsubr
            44 vhcurveto
            return
          </CharString>
          <CharString index="210">
            353 callsubr
            -7 19 0 vhcurveto
            259 -74 hlineto
            1 -6 -27 5 -32 hhcurveto
            -115 -32 -55 -97 hvcurveto
            -91 vlineto
            -97 37 -51 116 34 19 314 callgsubr
          </CharString>
          <CharString index="211">
            114 hlineto
            -20 callgsubr
            return
          </CharString>
          <CharString index="212">
            186 callgsubr
            150 callsubr
            return
          </CharString>
          <CharString index="213">
            rmoveto
            -30 -8 -21 -43 -43 -9 21 30 vhcurveto
            189 vlineto
            29 9 22 43 43 8 -22 -29 vhcurveto
            -220 -190 rmoveto
            -29 -9 -21 -42 -43 -8 21 29 vhcurveto
            190 vlineto
            29 8 22 43 42 9 -22 -29 vhcurveto
            return
          </CharString>
          <CharString index="214">
            -37 callsubr
            endchar
          </CharString>
          <CharString index="215">
            -28 -7 350 callsubr
            91 76 callsubr
            48 hlineto
            return
          </CharString>
          <CharString index="216">
            rmoveto
            -90 125 90 hlineto
            return
          </CharString>
          <CharString index="217">
            rmoveto
            -108 168 vlineto
            -172 -395 rlineto
            -81 311 107 -172 vlineto
            170 397 rlineto
            80 vlineto
            return
          </CharString>
          <CharString index="218">
            rrcurveto
            -30 -19 -16 -30 -48 vvcurveto
            return
          </CharString>
          <CharString index="219">
            53 94 hvcurveto
            147 vlineto
            97 return
          </CharString>
          <CharString index="220">
            7 27 321 callsubr
            -53 57 -117 -116 -54 -57 -97 -10 1 -10 1 -5 vhcurveto
            411 174 rmoveto
            -665 -31 callgsubr
          </CharString>
          <CharString index="221">
            rmoveto
            -382 -111 127 -576 128 576 127 hlineto
            endchar
          </CharString>
          <CharString index="222">
            86 99 vlineto
            endchar
          </CharString>
          <CharString index="223">
            -42 -9 14 25 hvcurveto
            5 vlineto
            22 1 10 12 41 hhcurveto
            162 164 return
          </CharString>
          <CharString index="224">
            7 7 35 vhcurveto
            -36 callsubr
            return
          </CharString>
          <CharString index="225">
            -26 -5 -1 -5 vhcurveto
            67 return
          </CharString>
          <CharString index="226">
            -17 -25 -2 -5 -15 return
          </CharString>
          <CharString index="227">
            -28 -8 -19 -38 return
          </CharString>
          <CharString index="228">
            -88 125 callsubr
            88 vhcurveto
            76 callgsubr
          </CharString>
          <CharString index="229">
            1 -45 16 -27 29 -16 111 callsubr
            return
          </CharString>
          <CharString index="230">
            -96 52 -57 273 callgsubr
            51 57 96 vhcurveto
            return
          </CharString>
          <CharString index="231">
            -99 91 170 callgsubr
            return
          </CharString>
          <CharString index="232">
            47 -55 116 11 callgsubr
            return
          </CharString>
          <CharString index="233">
            -127 -192 rcurveline
            171 callgsubr
          </CharString>
          <CharString index="234">
            -29 callsubr
            38 vhcurveto
            return
          </CharString>
          <CharString index="235">
            rmoveto
            -9 callgsubr
            return
          </CharString>
          <CharString index="236">
            3 callgsubr
            -120 -123 hlineto
            return
          </CharString>
          <CharString index="237">
            -49 5 687 rmoveto
            -118 205 vlineto
            -66 -211 rlineto
            -23 -66 -17 -84 -96 vvcurveto
            -112 129 102 vlineto
            97 16 71 22 69 vhcurveto
            81 246 rlineto
            102 vlineto
            endchar
          </CharString>
          <CharString index="238">
            -94 callgsubr
            vlineto
            endchar
          </CharString>
          <CharString index="239">
            0 -11 256 callsubr
            -98 66 -57 124 45 32 5 6 22 vhcurveto
            -70 244 callsubr
            return
          </CharString>
          <CharString index="240">
            -135 70 -53 147 59 36 4 7 43 vhcurveto
            107 vlineto
            -7 -43 -35 -4 -60 hhcurveto
            -66 -35 22 61 hvcurveto
            104 vlineto
            -4 18 29 -3 22 hhcurveto
            42 36 12 24 20 hvcurveto
            return
          </CharString>
          <CharString index="241">
            -99 106 hlineto
            -13 -15 -7 -20 -26 vvcurveto
            -130 vlineto
            -47 12 -31 31 -17 vhcurveto
            -33 224 callsubr
            169 56 51 118 vhcurveto
            return
          </CharString>
          <CharString index="242">
            28 260 557 rmoveto
            -326 -140 vlineto
            321 hmoveto
            -66 456 -167 hlineto
            -198 -450 rlineto
            -117 245 -120 120 120 66 vlineto
            endchar
          </CharString>
          <CharString index="243">
            118 callgsubr
            -78 -21 24 44 hvcurveto
            3 270 callsubr
            return
          </CharString>
          <CharString index="244">
            203 -24 callsubr
            return
          </CharString>
          <CharString index="245">
            hhcurveto
            -11 -10 -1 -2 -11 hvcurveto
            -98 vlineto
            1 5 6 0 4 hhcurveto
            22 9 -13 -30 11 hvcurveto
            return
          </CharString>
          <CharString index="246">
            -109 -53 -36 -91 hvcurveto
            -17 210 callsubr
            return
          </CharString>
          <CharString index="247">
            vlineto
            97 -47 53 -110 -111 -50 -53 -97 vhcurveto
            return
          </CharString>
          <CharString index="248">
            38 147 callgsubr
            return
          </CharString>
          <CharString index="249">
            2 -6 -28 6 -44 hhcurveto
            return
          </CharString>
          <CharString index="250">
            0 -7 -19 -35 vvcurveto
            return
          </CharString>
          <CharString index="251">
            vlineto
            -99 36 -49 123 24 20 2 3 18 vhcurveto
            -66 20 54 -46 101 hhcurveto
            59 42 9 12 36 hvcurveto
            308 callsubr
            return
          </CharString>
          <CharString index="252">
            202 callgsubr
            21 vhcurveto
            -95 return
          </CharString>
          <CharString index="253">
            97 -49 56 -115 -114 -50 -56 -97 return
          </CharString>
          <CharString index="254">
            -56 -57 -97 hvcurveto
            return
          </CharString>
          <CharString index="255">
            53 315 687 rmoveto
            -128 -337 134 -350 rlineto
            141 hlineto
            -142 352 131 335 rlineto
            -399 hmoveto
            -687 127 687 vlineto
            return
          </CharString>
          <CharString index="256">
            vlineto
            -96 44 -55 106 7 12 1 1 9 vhcurveto
            110 vlineto
            -44 -1 -16 12 35 vvcurveto
            return
          </CharString>
          <CharString index="257">
            -29 vlineto
            -97 57 -38 105 vhcurveto
            -5 callgsubr
            return
          </CharString>
          <CharString index="258">
            vlineto
            -30 -10 -18 -43 -43 -9 18 30 vhcurveto
            218 236 rmoveto
            0 -2 15 4 vvcurveto
            28 9 23 43 43 9 -21 -28 vhcurveto
            -122 vlineto
            -28 -9 -20 -43 return
          </CharString>
          <CharString index="259">
            -72 vlineto
            185 callgsubr
            -116 -61 -41 -116 hvcurveto
            -134 vlineto
            15 callsubr
            return
          </CharString>
          <CharString index="260">
            rmoveto
            146 -119 rlineto
            -21 -10 -21 -10 -38 hhcurveto
            -58 -19 return
          </CharString>
          <CharString index="261">
            101 callgsubr
            -25 -31 vvcurveto
            return
          </CharString>
          <CharString index="262">
            hlineto
            63 callsubr
            return
          </CharString>
          <CharString index="263">
            vvcurveto
            -38 callgsubr
          </CharString>
          <CharString index="264">
            248 callsubr
            -56 -7 -63 hhcurveto
            -62 -33 17 50 hvcurveto
            57 182 callgsubr
            75 hvcurveto
            185 81 99 vlineto
            endchar
          </CharString>
          <CharString index="265">
            566 rmoveto
            13 callgsubr
            return
          </CharString>
          <CharString index="266">
            97 callsubr
            -34 return
          </CharString>
          <CharString index="267">
            vvcurveto
            27 5 20 41 return
          </CharString>
          <CharString index="268">
            180 callsubr
            -507 -99 84 return
          </CharString>
          <CharString index="269">
            120 callgsubr
            99 vlineto
            endchar
          </CharString>
          <CharString index="270">
            63 callsubr
            -113 -98 callsubr
            return
          </CharString>
          <CharString index="271">
            -92 callgsubr
            -162 vlineto
            return
          </CharString>
          <CharString index="272">
            49 callgsubr
            -91 -49 vlineto
            return
          </CharString>
          <CharString index="273">
            97 56 36 105 hvcurveto
            32 vlineto
            22 -5 19 -11 15 vhcurveto
            return
          </CharString>
          <CharString index="274">
            92 callgsubr
            47 99 return
          </CharString>
          <CharString index="275">
            184 callsubr
            128 return
          </CharString>
          <CharString index="276">
            hlineto
            0 -7 -22 -38 vvcurveto
            return
          </CharString>
          <CharString index="277">
            0 10 -17 -37 vvcurveto
            return
          </CharString>
          <CharString index="278">
            362 callsubr
            -237 -84 callsubr
            return
          </CharString>
          <CharString index="279">
            -5 27 687 rmoveto
            189 callsubr
            -234 vlineto
            341 callsubr
            vlineto
            return
          </CharString>
          <CharString index="280">
            371 rmoveto
            -92 11 hlineto
            130 -73 callgsubr
            99 hlineto
            -208 223 callgsubr
            return
          </CharString>
          <CharString index="281">
            hhcurveto
            136 65 51 106 hvcurveto
            -12 callgsubr
            endchar
          </CharString>
          <CharString index="282">
            124 callgsubr
            -203 return
          </CharString>
          <CharString index="283">
            5 2 6 vhcurveto
            -114 115 566 return
          </CharString>
          <CharString index="284">
            -69 -44 vlineto
            -117 204 callsubr
            return
          </CharString>
          <CharString index="285">
            vlineto
            32 -7 22 0 vhcurveto
            87 return
          </CharString>
          <CharString index="286">
            37 32 4 5 22 return
          </CharString>
          <CharString index="287">
            110 -157 vlineto
            -33 -7 -12 -33 vhcurveto
            -12 -109 hlineto
            -1 7 8 -1 6 hhcurveto
            114 35 55 94 hvcurveto
            164 77 99 return
          </CharString>
          <CharString index="288">
            198 257 478 rmoveto
            -35 -21 -15 -24 -20 vhcurveto
            -26 20 -19 15 35 vvcurveto
            42 146 callgsubr
            return
          </CharString>
          <CharString index="289">
            -363 176 callgsubr
            return
          </CharString>
          <CharString index="290">
            -121 -584 128 return
          </CharString>
          <CharString index="291">
            52 687 rmoveto
            -687 return
          </CharString>
          <CharString index="292">
            -34 -16 -15 -33 -51 vvcurveto
            return
          </CharString>
          <CharString index="293">
            rmoveto
            -68 254 68 vlineto
            return
          </CharString>
          <CharString index="294">
            -3 -19 hhcurveto
            -45 return
          </CharString>
          <CharString index="295">
            490 rmoveto
            142 callsubr
            -102 -52 -50 -77 -12 236 callgsubr
            346 hlineto
            return
          </CharString>
          <CharString index="296">
            -108 223 vlineto
            -228 -471 rlineto
            -108 367 108 return
          </CharString>
          <CharString index="297">
            -58 callgsubr
            177 283 callgsubr
            return
          </CharString>
          <CharString index="298">
            -99 198 callsubr
            return
          </CharString>
          <CharString index="299">
            17 rmoveto
            -30 -9 -20 -46 -47 -8 20 30 vhcurveto
            51 vlineto
            30 16 14 34 2 vhcurveto
            3 hlineto
            22 1 22 5 13 6 rrcurveto
            return
          </CharString>
          <CharString index="300">
            hhcurveto
            354 callsubr
            hvcurveto
            315 callgsubr
          </CharString>
          <CharString index="301">
            hhcurveto
            119 callsubr
            hvcurveto
            68 return
          </CharString>
          <CharString index="302">
            178 callsubr
            hlineto
            return
          </CharString>
          <CharString index="303">
            -112 118 return
          </CharString>
          <CharString index="304">
            -99 296 -59 -58 hlineto
            139 callsubr
            return
          </CharString>
          <CharString index="305">
            274 -125 -49 vlineto
            -74 callsubr
            return
          </CharString>
          <CharString index="306">
            -110 141 687 rmoveto
            -127 -94 rlineto
            -140 vlineto
            114 84 rlineto
            -537 324 callgsubr
          </CharString>
          <CharString index="307">
            vlineto
            -28 -10 -20 -42 -25 -20 5 2 -7 vhcurveto
            return
          </CharString>
          <CharString index="308">
            356 callgsubr
            -137 vlineto
            -47 12 -31 return
          </CharString>
          <CharString index="309">
            219 callsubr
            -4 return
          </CharString>
          <CharString index="310">
            vlineto
            7 -50 -59 6 -58 hhcurveto
            return
          </CharString>
          <CharString index="311">
            -55 -40 -109 hvcurveto
            return
          </CharString>
          <CharString index="312">
            -99 268 -101 -47 354 callgsubr
            -53 vlineto
            -88 47 -56 115 116 46 56 89 vhcurveto
            95 return
          </CharString>
          <CharString index="313">
            rmoveto
            111 -334 -687 334 110 -207 182 179 111 -179 173 vlineto
            endchar
          </CharString>
          <CharString index="314">
            169 -10 callgsubr
            0 -1 28 44 vvcurveto
            45 19 18 43 7 7 220 callsubr
            -13 2 -13 return
          </CharString>
          <CharString index="315">
            -35 hvcurveto
            -61 -67 callsubr
          </CharString>
          <CharString index="316">
            vlineto
            -88 47 -55 115 116 47 55 88 vhcurveto
            141 89 364 callgsubr
          </CharString>
          <CharString index="317">
            vlineto
            122 callsubr
            return
          </CharString>
          <CharString index="318">
            -38 -8 19 28 vhcurveto
            return
          </CharString>
          <CharString index="319">
            -125 -49 hlineto
            return
          </CharString>
          <CharString index="320">
            505 rmoveto
            122 -183 -122 -183 rlineto
            128 hlineto
            121 183 -121 183 rlineto
            return
          </CharString>
          <CharString index="321">
            249 callsubr
            -43 -35 -9 -18 return
          </CharString>
          <CharString index="322">
            -105 60 -53 112 53 46 10 0 vhcurveto
            107 vlineto
            0 -49 -9 -48 -33 -25 8 42 41 25 8 32 return
          </CharString>
          <CharString index="323">
            10 vlineto
            99 -55 35 -118 vhcurveto
            -28 hlineto
            return
          </CharString>
          <CharString index="324">
            304 callsubr
            54 109 hvcurveto
            return
          </CharString>
          <CharString index="325">
            -66 131 callsubr
          </CharString>
          <CharString index="326">
            245 callsubr
            0 return
          </CharString>
          <CharString index="327">
            -1 0 vhcurveto
            100 vlineto
            0 return
          </CharString>
          <CharString index="328">
            233 274 rmoveto
            -28 -6 -20 -42 -41 -7 19 28 vhcurveto
            46 76 callsubr
            47 hlineto
            return
          </CharString>
          <CharString index="329">
            vlineto
            82 callgsubr
          </CharString>
          <CharString index="330">
            -186 52 739 rmoveto
            -739 128 739 vlineto
            return
          </CharString>
          <CharString index="331">
            -17 -15 -33 -42 vvcurveto
            -26 vlineto
            -111 64 -47 165 return
          </CharString>
          <CharString index="332">
            -291 hlineto
            -97 44 -63 138 return
          </CharString>
          <CharString index="333">
            79 -36 48 -75 15 vhcurveto
            63 return
          </CharString>
          <CharString index="334">
            40 22 24 48 vhcurveto
            return
          </CharString>
          <CharString index="335">
            -40 -12 -20 -30 vhcurveto
            return
          </CharString>
          <CharString index="336">
            139 -226 return
          </CharString>
          <CharString index="337">
            hlineto
            138 callgsubr
            return
          </CharString>
          <CharString index="338">
            79 callsubr
            vlineto
            endchar
          </CharString>
          <CharString index="339">
            vhcurveto
            -108 vlineto
            return
          </CharString>
          <CharString index="340">
            118 callgsubr
            -77 -22 24 44 hvcurveto
            3 270 callsubr
            return
          </CharString>
          <CharString index="341">
            hhcurveto
            -46 -21 18 35 hvcurveto
            142 vlineto
            34 19 18 47 vhcurveto
            6 9 -1 10 hhcurveto
            100 vlineto
            return
          </CharString>
          <CharString index="342">
            165 callgsubr
            vlineto
            endchar
          </CharString>
          <CharString index="343">
            80 hlineto
            46 11 -23 -30 hvcurveto
            -264 158 rmoveto
            return
          </CharString>
          <CharString index="344">
            0 -50 9 -63 vhcurveto
            -99 vlineto
            63 50 8 0 hvcurveto
            return
          </CharString>
          <CharString index="345">
            53 19 28 40 41 -19 29 -53 -55 -17 -29 -41 return
          </CharString>
          <CharString index="346">
            19 19 49 callgsubr
            return
          </CharString>
          <CharString index="347">
            255 rmoveto
            -36 -6 -24 -23 -67 hhcurveto
            return
          </CharString>
          <CharString index="348">
            hvcurveto
            34 vlineto
            78 3 40 39 79 vvcurveto
            return
          </CharString>
          <CharString index="349">
            hhcurveto
            -43 -10 20 30 hvcurveto
            return
          </CharString>
          <CharString index="350">
            7 10 3 15 32 vvcurveto
            return
          </CharString>
          <CharString index="351">
            228 callgsubr
            99 return
          </CharString>
          <CharString index="352">
            0 vhcurveto
            113 hlineto
            return
          </CharString>
          <CharString index="353">
            rmoveto
            179 90 99 return
          </CharString>
          <CharString index="354">
            vhcurveto
            118 hlineto
            return
          </CharString>
          <CharString index="355">
            106 vlineto
            -7 -36 return
          </CharString>
          <CharString index="356">
            -84 hlineto
            2 -6 -21 5 -28 hhcurveto
            -57 -28 -72 callsubr
            return
          </CharString>
          <CharString index="357">
            285 callsubr
            -112 118 return
          </CharString>
          <CharString index="358">
            313 callgsubr
            -60 21 -45 43 -26 vhcurveto
            return
          </CharString>
          <CharString index="359">
            -108 -54 -39 -97 hvcurveto
            -9 vlineto
            -100 62 -35 92 vhcurveto
            2 hlineto
            40 9 -21 -25 hvcurveto
            return
          </CharString>
          <CharString index="360">
            333 callgsubr
            115 566 87 vlineto
            endchar
          </CharString>
          <CharString index="361">
            rmoveto
            256 callgsubr
            328 callsubr
            49 16 29 36 37 -16 29 -49 hvcurveto
            endchar
          </CharString>
          <CharString index="362">
            vhcurveto
            -65 116 return
          </CharString>
          <CharString index="363">
            47 callsubr
            -53 vlineto
            return
          </CharString>
          <CharString index="364">
            512 rmoveto
            32 -7 22 0 vhcurveto
            87 -362 hlineto
            126 callgsubr
            return
          </CharString>
          <CharString index="365">
            328 callsubr
            51 330 callsubr
            endchar
          </CharString>
          <CharString index="366">
            hlineto
            10 callgsubr
            -32 -9 -17 return
          </CharString>
          <CharString index="367">
            hlineto
            34 callsubr
            return
          </CharString>
          <CharString index="368">
            -27 -38 -56 -94 -52 vvcurveto
            -32 16 -18 37 vhcurveto
            return
          </CharString>
          <CharString index="369">
            -4 -15 -14 -3 -22 hhcurveto
            -44 -14 18 30 hvcurveto
            return
          </CharString>
          <CharString index="370">
            hhcurveto
            -119 -47 -56 -96 hvcurveto
            -146 vlineto
            -97 return
          </CharString>
          <CharString index="371">
            46 10 325 callgsubr
            return
          </CharString>
          <CharString index="372">
            vlineto
            97 -50 40 -113 vhcurveto
            return
          </CharString>
          <CharString index="373">
            42 7 -20 -29 vhcurveto
            return
          </CharString>
          <CharString index="374">
            rmoveto
            -39 18 -29 54 54 18 29 39 41 -18 29 -54 -54 -18 -29 -41 vhcurveto
            return
          </CharString>
          <CharString index="375">
            795 rmoveto
            1 9 9 0 8 hhcurveto
            31 20 -13 -28 22 hvcurveto
            68 -90 rlineto
            return
          </CharString>
          <CharString index="376">
            -69 vlineto
            3 -14 -28 6 -32 hhcurveto
            return
          </CharString>
          <CharString index="377">
            vlineto
            77 40 37 78 hvcurveto
            return
          </CharString>
          <CharString index="378">
            -94 callgsubr
            99 return
          </CharString>
          <CharString index="379">
            119 566 return
          </CharString>
          <CharString index="380">
            22 6 -20 -28 hvcurveto
            -84 355 callgsubr
            -15 -18 3 3 -12 vhcurveto
            return
          </CharString>
          <CharString index="381">
            -55 113 113 44 55 97 vhcurveto
            34 vlineto
            27 -6 18 -2 5 vhcurveto
            return
          </CharString>
          <CharString index="382">
            -96 47 -57 112 49 39 16 31 24 vhcurveto
            -31 24 38 -16 49 hhcurveto
            return
          </CharString>
          <CharString index="383">
            -67 23 -44 49 -22 vhcurveto
            -69 -1 -19 -10 -67 hhcurveto
            -51 -32 8 42 hvcurveto
            return
          </CharString>
          <CharString index="384">
            rmoveto
            146 -151 rlineto
            -24 -11 -21 -16 -42 243 callgsubr
            return
          </CharString>
          <CharString index="385">
            -99 286 -66 -44 vlineto
            293 callgsubr
            -68 23 return
          </CharString>
          <CharString index="386">
            -28 51 50 15 28 37 37 -15 28 -50 return
          </CharString>
          <CharString index="387">
            vlineto
            24 10 16 34 vhcurveto
            163 164 return
          </CharString>
          <CharString index="388">
            hlineto
            212 callgsubr
            return
          </CharString>
          <CharString index="389">
            64 -126 -126 return
          </CharString>
          <CharString index="390">
            rlineto
            123 hlineto
            return
          </CharString>
          <CharString index="391">
            -17 -37 vvcurveto
            -128 vlineto
            -28 -9 -21 -43 -15 -14 3 3 -11 vhcurveto
            return
          </CharString>
          <CharString index="392">
            -99 77 154 callgsubr
            return
          </CharString>
          <CharString index="393">
            -59 -150 hvcurveto
            endchar
          </CharString>
          <CharString index="394">
            -21 -59 -60 -13 21 37 vhcurveto
            134 vlineto
            34 17 16 44 15 return
          </CharString>
          <CharString index="395">
            85 vlineto
            88 64 46 102 hvcurveto
            311 vlineto
            87 -54 41 -74 -48 return
          </CharString>
          <CharString index="396">
            rmoveto
            138 -143 rlineto
            -32 -6 -26 -16 -38 hhcurveto
            -55 -13 21 return
          </CharString>
          <CharString index="397">
            146 callgsubr
            190 145 rmoveto
            return
          </CharString>
          <CharString index="398">
            1 9 8 0 9 hhcurveto
            30 21 -13 -28 22 hvcurveto
            67 -90 rlineto
            return
          </CharString>
          <CharString index="399">
            -130 41 385 rmoveto
            -110 212 110 vlineto
            endchar
          </CharString>
          <CharString index="400">
            hlineto
            10 callgsubr
            -30 return
          </CharString>
          <CharString index="401">
            -28 -8 350 callsubr
            return
          </CharString>
          <CharString index="402">
            21 24 66 37 34 -9 -2 7 vhcurveto
            return
          </CharString>
          <CharString index="403">
            299 callsubr
            45 11 return
          </CharString>
          <CharString index="404">
            hhcurveto
            -17 -25 -2 -4 -15 hvcurveto
            return
          </CharString>
          <CharString index="405">
            -21 -94 -94 -16 12 46 vhcurveto
            return
          </CharString>
          <CharString index="406">
            vlineto
            4 14 17 2 16 hhcurveto
            return
          </CharString>
          <CharString index="407">
            304 callgsubr
            86 return
          </CharString>
          <CharString index="408">
            488 rmoveto
            -236 hlineto
            return
          </CharString>
          <CharString index="409">
            78 4 39 39 78 vvcurveto
            return
          </CharString>
          <CharString index="410">
            -566 -97 callgsubr
            return
          </CharString>
          <CharString index="411">
            -4 307 callgsubr
            return
          </CharString>
          <CharString index="412">
            -99 282 -62 -45 return
          </CharString>
          <CharString index="413">
            68 54 109 hvcurveto
            return
          </CharString>
          <CharString index="414">
            -1 -2 -13 hvcurveto
            return
          </CharString>
          <CharString index="415">
            180 callgsubr
            -30 -10 -53 hhcurveto
            -65 -26 28 47 hvcurveto
            return
          </CharString>
          <CharString index="416">
            -41 -24 -15 -54 -56 -22 15 41 vhcurveto
            -117 -5 hlineto
            -106 return
          </CharString>
          <CharString index="417">
            -4 callgsubr
            126 return
          </CharString>
          <CharString index="418">
            hvcurveto
            -44 vlineto
            -20 -5 -16 -33 vhcurveto
            -48 -76 48 hlineto
            33 5 return
          </CharString>
          <CharString index="419">
            -76 vlineto
            337 callgsubr
            return
          </CharString>
          <CharString index="420">
            -382 -687 rlineto
            82 hlineto
            383 687 rlineto
            endchar
          </CharString>
          <CharString index="421">
            -38 -8 18 28 vhcurveto
            38 127 callsubr
            endchar
          </CharString>
          <CharString index="422">
            -54 -158 hvcurveto
            endchar
          </CharString>
          <CharString index="423">
            -121 118 return
          </CharString>
          <CharString index="424">
            47 55 88 vhcurveto
            141 90 -341 115 566 return
          </CharString>
          <CharString index="425">
            -42 -234 rlineto
            52 hlineto
            26 38 56 94 52 vvcurveto
            32 return
          </CharString>
          <CharString index="426">
            -96 52 -57 273 callgsubr
            52 57 96 vhcurveto
            204 return
          </CharString>
          <CharString index="427">
            -99 316 -69 -56 vlineto
            -124 -59 -40 -109 hvcurveto
            return
          </CharString>
          <CharString index="428">
            -6 30 hhcurveto
            109 49 51 97 hvcurveto
            130 vlineto
            97 return
          </CharString>
          <CharString index="429">
            344 callgsubr
            -24 3 return
          </CharString>
          <CharString index="430">
            vlineto
            -116 -69 -44 -109 hvcurveto
            return
          </CharString>
          <CharString index="431">
            -123 -36 -51 -97 return
          </CharString>
          <CharString index="432">
            hlineto
            -132 -50 -57 return
          </CharString>
          <CharString index="433">
            vlineto
            -48 -16 -21 -94 return
          </CharString>
          <CharString index="434">
            -99 77 -311 return
          </CharString>
          <CharString index="435">
            -36 14 -29 51 return
          </CharString>
          <CharString index="436">
            205 99 rmoveto
            return
          </CharString>
          <CharString index="437">
            15 29 36 37 -15 29 -51 256 callgsubr
            vhcurveto
            return
          </CharString>
          <CharString index="438">
            hlineto
            -26 -179 rlineto
            112 hlineto
            25 179 rlineto
            return
          </CharString>
          <CharString index="439">
            vlineto
            -89 47 -55 115 11 callgsubr
            89 vhcurveto
            return
          </CharString>
          <CharString index="440">
            203 callgsubr
            -37 -8 19 28 vhcurveto
            return
          </CharString>
          <CharString index="441">
            -72 -21 vlineto
            -118 -57 -58 -104 hvcurveto
            -165 vlineto
            return
          </CharString>
          <CharString index="442">
            -37 14 -29 51 51 15 29 37 36 -15 29 -51 return
          </CharString>
          <CharString index="443">
            141 callgsubr
            -131 vlineto
            return
          </CharString>
          <CharString index="444">
            -30 -12 -24 -47 -47 -12 26 30 vhcurveto
            147 vlineto
            return
          </CharString>
          <CharString index="445">
            -125 vlineto
            -441 vmoveto
            356 callsubr
            99 return
          </CharString>
          <CharString index="446">
            vlineto
            -148 109 351 callgsubr
            return
          </CharString>
          <CharString index="447">
            112 566 86 vlineto
            endchar
          </CharString>
          <CharString index="448">
            232 475 rlineto
            104 return
          </CharString>
          <CharString index="449">
            2 -7 -34 9 -52 hhcurveto
            return
          </CharString>
          <CharString index="450">
            vlineto
            46 11 -22 callsubr
            return
          </CharString>
          <CharString index="451">
            vlineto
            -96 57 -39 105 vhcurveto
            return
          </CharString>
          <CharString index="452">
            -23 31 54 hvcurveto
            34 vlineto
            return
          </CharString>
          <CharString index="453">
            hlineto
            116 184 rlineto
            1 -179 118 return
          </CharString>
          <CharString index="454">
            rmoveto
            -43 113 rlineto
            -97 hlineto
            71 -113 rlineto
            return
          </CharString>
          <CharString index="455">
            176 90 99 -493 -99 285 -69 -45 return
          </CharString>
          <CharString index="456">
            -13 -35 -38 -10 -57 hhcurveto
            -65 -33 19 47 hvcurveto
            return
          </CharString>
          <CharString index="457">
            249 callgsubr
            18 28 vhcurveto
            return
          </CharString>
          <CharString index="458">
            -6 -17 -17 -3 -23 hhcurveto
            -42 return
          </CharString>
          <CharString index="459">
            17 -60 hhcurveto
            -15 -12 -1 -2 return
          </CharString>
          <CharString index="460">
            55 101 hvcurveto
            121 vlineto
            35 return
          </CharString>
          <CharString index="461">
            37 33 4 5 21 return
          </CharString>
          <CharString index="462">
            -72 134 134 return
          </CharString>
          <CharString index="463">
            116 566 86 return
          </CharString>
          <CharString index="464">
            rmoveto
            -28 -8 -20 -42 -43 -7 20 28 vhcurveto
            return
          </CharString>
          <CharString index="465">
            25 26 -18 19 -26 -25 -19 -19 -26 vhcurveto
            return
          </CharString>
          <CharString index="466">
            vlineto
            36 -12 25 -23 13 vhcurveto
            24 14 11 return
          </CharString>
          <CharString index="467">
            -99 77 -299 vlineto
            -96 44 -53 120 return
          </CharString>
          <CharString index="468">
            rmoveto
            -120 -291 rlineto
            -77 166 -82 return
          </CharString>
          <CharString index="469">
            -9 vhcurveto
            27 -18 302 callgsubr
            return
          </CharString>
          <CharString index="470">
            vhcurveto
            -65 306 callgsubr
            vlineto
            endchar
          </CharString>
          <CharString index="471">
            566 85 hlineto
            endchar
          </CharString>
          <CharString index="472">
            -55 -157 hvcurveto
            endchar
          </CharString>
          <CharString index="473">
            -15 29 -50 hvcurveto
            return
          </CharString>
          <CharString index="474">
            14 24 50 vhcurveto
            return
          </CharString>
        <CharString name=".notdef">
          337 165 hmoveto
          425 701 -425 hlineto
          74 -70 rmoveto
          277 -561 -277 hlineto
          endchar
        </CharString>
        <CharString name="A">
          56 181 276 -77 callsubr
        </CharString>
        <CharString name="AE">
          288 232 276 rmoveto
          123 324 rlineto
          -324 vlineto
          326 300 rmoveto
          111 -402 vlineto
          -277 -687 rlineto
          125 hlineto
          64 168 rlineto
          164 -168 326 110 -207 182 179 111 -179 173 hlineto
          endchar
        </CharString>
        <CharString name="Aacute">
          56 337 839 rmoveto
          -97 hlineto
          -43 -113 rlineto
          69 hlineto
          -85 -450 -77 callsubr
        </CharString>
        <CharString name="Abreve">
          56 283 839 45 callgsubr
          -171 -563 -77 callsubr
        </CharString>
        <CharString name="Acircumflex">
          56 241 782 -30 callgsubr
          -20 -450 -77 callsubr
        </CharString>
        <CharString name="Adieresis">
          56 315 733 144 callgsubr
          26 -457 -77 callsubr
        </CharString>
        <CharString name="Agrave">
          56 269 726 347 callsubr
          -19 -450 -77 callsubr
        </CharString>
        <CharString name="Amacron">
          56 362 817 rmoveto
          -254 -68 254 hlineto
          -181 -473 -77 callsubr
        </CharString>
        <CharString name="Aogonek">
          56 181 276 rmoveto
          54 296 56 -296 rlineto
          36 411 rmoveto
          -178 hlineto
          -141 -687 283 callsubr
          31 168 328 callgsubr
          32 -168 rlineto
          74 hlineto
          -25 callgsubr
          endchar
        </CharString>
        <CharString name="Aring">
          56 235 813 rmoveto
          18 12 -13 -17 -20 -12 -12 -18 -18 -12 12 20 17 12 13 18 hvcurveto
          -108 vmoveto
          52 27 35 43 42 -27 34 -52 -51 -28 -34 -42 -43 28 -35 51 hvcurveto
          -54 -429 -77 callsubr
        </CharString>
        <CharString name="Atilde">
          56 164 735 rmoveto
          24 6 11 16 vhcurveto
          26 31 -39 48 hhcurveto
          55 27 38 58 hvcurveto
          8 -70 -6 vlineto
          -24 -5 -11 -17 vhcurveto
          -25 -29 39 -51 hhcurveto
          -56 -26 -40 -58 hvcurveto
          -5 70 vlineto
          17 -454 -77 callsubr
        </CharString>
        <CharString name="B">
          68 318 165 rmoveto
          -40 -20 -18 -41 vhcurveto
          -78 183 78 hlineto
          41 20 -18 -40 hvcurveto
          -67 347 rmoveto
          41 20 -17 -40 hvcurveto
          -62 vlineto
          -40 -20 -18 -41 vhcurveto
          -72 177 hlineto
          259 -49 rmoveto
          109 -61 48 -107 vhcurveto
          -218 -687 224 hlineto
          107 61 48 109 hvcurveto
          68 vlineto
          59 -20 47 -58 16 vhcurveto
          53 18 19 45 57 vvcurveto
          endchar
        </CharString>
        <CharString name="C">
          -11 42 531 rmoveto
          -376 vlineto
          -99 64 -61 145 49 49 7 8 29 vhcurveto
          115 vlineto
          160 callgsubr
          352 vlineto
          22 callgsubr
          endchar
        </CharString>
        <CharString name="CR">
          -418 endchar
        </CharString>
        <CharString name="Cacute">
          -11 249 839 -50 callsubr
          -304 -308 rmoveto
          -376 vlineto
          -99 64 -61 145 49 49 7 8 29 vhcurveto
          115 vlineto
          160 callgsubr
          352 vlineto
          22 callgsubr
          endchar
        </CharString>
        <CharString name="Ccaron">
          -11 192 726 -54 callgsubr
          35 -320 rmoveto
          22 callgsubr
          -376 193 callgsubr
        </CharString>
        <CharString name="Ccedilla">
          -11 378 125 rmoveto
          160 callgsubr
          352 vlineto
          22 callgsubr
          -376 vlineto
          -87 49 -57 109 -13 vhcurveto
          -16 -73 58 callgsubr
          8 34 rlineto
          47 47 7 8 28 hvcurveto
          endchar
        </CharString>
        <CharString name="D">
          67 184 callsubr
          117 callgsubr
          40 -158 rmoveto
          -360 vlineto
          345 callgsubr
          472 80 hlineto
          46 11 -23 -30 hvcurveto
          endchar
        </CharString>
        <CharString name="Dcaron">
          67 185 726 -54 callgsubr
          188 -670 rmoveto
          345 callgsubr
          472 236 callsubr
          -687 117 callgsubr
          endchar
        </CharString>
        <CharString name="Dcroat">
          339 callgsubr
          176 69 106 -69 190 236 callsubr
          -295 -63 -106 63 -286 117 callgsubr
          endchar
        </CharString>
        <CharString name="E">
          -4 52 687 107 callsubr
        </CharString>
        <CharString name="Eacute">
          -4 224 839 -50 callsubr
          -269 -152 107 callsubr
        </CharString>
        <CharString name="Ecaron">
          -4 169 726 -54 callgsubr
          274 -263 206 callsubr
        </CharString>
        <CharString name="Ecircumflex">
          -4 213 782 -30 callgsubr
          213 -150 206 callsubr
        </CharString>
        <CharString name="Edieresis">
          -4 88 782 -85 callsubr
          -196 -95 107 callsubr
        </CharString>
        <CharString name="Edotaccent">
          -4 52 687 -37 callsubr
          -218 102 56 callsubr
        </CharString>
        <CharString name="Egrave">
          -4 52 687 -37 callsubr
          -271 152 43 callgsubr
        </CharString>
        <CharString name="Emacron">
          -4 52 687 -37 callsubr
          -297 130 186 callsubr
          endchar
        </CharString>
        <CharString name="Eogonek">
          -4 386 576 rmoveto
          111 -334 -687 285 vlineto
          -25 callgsubr
          1 110 -207 182 179 111 -179 173 hlineto
          endchar
        </CharString>
        <CharString name="Eth">
          339 callgsubr
          175 71 106 -71 191 236 callsubr
          -296 -67 -106 67 -285 117 callgsubr
          endchar
        </CharString>
        <CharString name="Euro">
          35 198 236 rmoveto
          117 85 -117 52 117 84 -117 62 hlineto
          22 callgsubr
          -74 -52 -84 52 -52 -52 -85 52 -81 193 callgsubr
        </CharString>
        <CharString name="F">
          -24 168 callsubr
          268 184 113 -184 195 197 111 vlineto
          endchar
        </CharString>
        <CharString name="G">
          -17 callgsubr
          endchar
        </CharString>
        <CharString name="Gbreve">
          -17 callgsubr
          251 312 45 callgsubr
          endchar
        </CharString>
        <CharString name="H">
          103 341 687 rmoveto
          -293 -161 293 -128 -687 128 281 161 -281 324 callgsubr
        </CharString>
        <CharString name="I">
          -186 168 callsubr
          687 vlineto
          endchar
        </CharString>
        <CharString name="Iacute">
          -4 225 839 -50 callsubr
          -270 -152 107 callsubr
        </CharString>
        <CharString name="Icircumflex">
          -186 118 782 -30 callgsubr
          -26 -726 rmoveto
          128 687 -128 hlineto
          endchar
        </CharString>
        <CharString name="Idieresis">
          -186 168 callsubr
          687 vlineto
          -197 95 42 callsubr
        </CharString>
        <CharString name="Idotaccent">
          -186 168 callsubr
          687 vlineto
          -118 102 56 callsubr
        </CharString>
        <CharString name="Igrave">
          -4 52 687 -37 callsubr
          -273 152 43 callgsubr
        </CharString>
        <CharString name="Imacron">
          -186 168 callsubr
          687 vlineto
          -188 130 186 callsubr
          endchar
        </CharString>
        <CharString name="Iogonek">
          -186 180 687 rmoveto
          -128 -687 80 hlineto
          -25 callgsubr
          endchar
        </CharString>
        <CharString name="J">
          -182 56 687 rmoveto
          -483 vlineto
          -96 -15 -63 -26 -90 vhcurveto
          -30 -104 rlineto
          134 hlineto
          31 103 rlineto
          26 87 8 54 110 vvcurveto
          482 vlineto
          endchar
        </CharString>
        <CharString name="K">
          148 callsubr
          endchar
        </CharString>
        <CharString name="L">
          -42 184 callsubr
          319 107 -191 580 vlineto
          endchar
        </CharString>
        <CharString name="Lacute">
          -42 121 839 -50 callsubr
          -166 -152 rmoveto
          -687 319 107 -191 580 vlineto
          endchar
        </CharString>
        <CharString name="Lcaron">
          -42 66 726 -54 callgsubr
          171 -732 rmoveto
          580 -128 -687 319 107 vlineto
          endchar
        </CharString>
        <CharString name="Lslash">
          -40 188 107 rmoveto
          216 vlineto
          89 39 rlineto
          88 vlineto
          -89 -39 rlineto
          276 -128 -332 vlineto
          -55 -24 rlineto
          -87 vlineto
          55 24 rlineto
          -268 319 107 vlineto
          endchar
        </CharString>
        <CharString name="M">
          220 451 687 rmoveto
          -133 -374 -132 374 rlineto
          -134 -687 122 274 hlineto
          110 -16 93 0 vhcurveto
          108 -300 rlineto
          105 hlineto
          108 300 rlineto
          0 -16 -90 -113 vvcurveto
          -274 123 687 vlineto
          endchar
        </CharString>
        <CharString name="N">
          105 345 687 86 callgsubr
        </CharString>
        <CharString name="NULL">
          -418 endchar
        </CharString>
        <CharString name="Nacute">
          105 259 839 -50 callsubr
          -11 83 callgsubr
        </CharString>
        <CharString name="Ncaron">
          105 209 726 -54 callgsubr
          193 83 callgsubr
        </CharString>
        <CharString name="Ntilde">
          105 345 687 -57 callsubr
          -134 148 -51 callsubr
        </CharString>
        <CharString name="O">
          74 callgsubr
          endchar
        </CharString>
        <CharString name="OE">
          282 246 110 rmoveto
          -46 -11 26 33 hvcurveto
          360 vlineto
          30 11 23 46 vhcurveto
          92 -472 hlineto
          334 466 rmoveto
          111 -443 vlineto
          -107 -60 -54 -99 hvcurveto
          -374 vlineto
          -98 47 -62 113 vhcurveto
          450 110 -207 182 179 111 -179 173 hlineto
          endchar
        </CharString>
        <CharString name="Oacute">
          62 254 839 -50 callsubr
          -309 -315 -81 callgsubr
          endchar
        </CharString>
        <CharString name="Ocircumflex">
          62 241 782 -30 callgsubr
          110 -557 rmoveto
          -38 -21 -25 -51 -50 -20 25 38 vhcurveto
          349 vlineto
          38 20 25 50 51 21 -26 -37 vhcurveto
          -269 -355 rmoveto
          -101 64 -72 133 134 65 72 101 vhcurveto
          361 vlineto
          101 -65 72 -134 -133 -64 -72 -101 vhcurveto
          endchar
        </CharString>
        <CharString name="Odieresis">
          62 107 782 -85 callsubr
          -225 -258 -81 callgsubr
          endchar
        </CharString>
        <CharString name="Ograve">
          74 callgsubr
          -180 321 43 callgsubr
        </CharString>
        <CharString name="Ohungarumlaut">
          62 305 839 26 callsubr
          -242 -315 -81 callgsubr
          endchar
        </CharString>
        <CharString name="Omacron">
          62 114 817 186 callsubr
          -326 -293 -81 callgsubr
          endchar
        </CharString>
        <CharString name="Oslash">
          62 311 169 rmoveto
          -38 -21 -25 -51 -30 -20 9 16 -10 vhcurveto
          132 279 rlineto
          -142 108 rmoveto
          38 20 25 50 31 19 -9 -16 11 vhcurveto
          -131 -278 rlineto
          273 409 rmoveto
          -80 hlineto
          -7 -15 rlineto
          16 -30 -39 9 -47 hhcurveto
          -133 -64 -72 -101 hvcurveto
          -361 vlineto
          -37 9 -34 18 -27 vhcurveto
          -31 -65 rlineto
          79 hlineto
          7 15 rlineto
          -16 30 38 -9 47 hhcurveto
          134 65 72 101 hvcurveto
          361 vlineto
          37 -9 34 -18 27 vhcurveto
          endchar
        </CharString>
        <CharString name="Otilde">
          74 callgsubr
          -4 317 -51 callsubr
        </CharString>
        <CharString name="P">
          43 168 callsubr
          209 80 vlineto
          107 63 54 99 hvcurveto
          172 vlineto
          99 -63 54 -107 vhcurveto
          43 -167 rmoveto
          -144 vlineto
          -38 -17 -19 -41 vhcurveto
          -65 257 65 hlineto
          41 17 -18 -38 hvcurveto
          endchar
        </CharString>
        <CharString name="Q">
          62 169 518 rmoveto
          38 20 25 50 51 21 -26 -37 vhcurveto
          -349 vlineto
          -38 -21 -25 -51 -50 -20 25 38 vhcurveto
          320 -260 rmoveto
          -114 119 rlineto
          42 30 21 48 57 vvcurveto
          361 vlineto
          101 -65 72 -134 -133 -64 -72 -101 vhcurveto
          -361 vlineto
          -101 64 -72 133 7 8 0 1 7 vhcurveto
          77 -82 rlineto
          endchar
        </CharString>
        <CharString name="R">
          57 179 578 -4 callsubr
        </CharString>
        <CharString name="Racute">
          57 330 839 rmoveto
          -97 hlineto
          -43 -113 rlineto
          69 hlineto
          -80 -148 -4 callsubr
        </CharString>
        <CharString name="Rcaron">
          57 178 726 -54 callgsubr
          58 -261 -4 callsubr
        </CharString>
        <CharString name="S">
          6 22 532 -71 callsubr
          endchar
        </CharString>
        <CharString name="Sacute">
          6 222 839 -50 callsubr
          -297 -307 -71 callsubr
          endchar
        </CharString>
        <CharString name="Scaron">
          6 163 726 -54 callgsubr
          100 -424 rmoveto
          -42 23 -12 15 40 vvcurveto
          24 vlineto
          34 17 23 62 58 44 -10 -14 33 vhcurveto
          122 vlineto
          8 -21 -48 12 -69 hhcurveto
          -142 -64 -61 -99 hvcurveto
          -61 vlineto
          -74 38 -43 56 -32 vhcurveto
          110 -59 rlineto
          36 -20 12 -14 -34 vvcurveto
          -23 vlineto
          -34 -27 -25 -69 -58 -56 13 14 -34 vhcurveto
          -123 vlineto
          -8 21 59 -14 69 hhcurveto
          150 73 60 101 hvcurveto
          60 vlineto
          66 -28 39 -54 29 vhcurveto
          endchar
        </CharString>
        <CharString name="T">
          -24 388 687 114 callsubr
        </CharString>
        <CharString name="Tcaron">
          -24 149 726 -54 callgsubr
          296 -152 114 callsubr
        </CharString>
        <CharString name="Thorn">
          28 309 274 rmoveto
          -37 -17 -19 -42 vhcurveto
          -66 252 66 hlineto
          42 17 -19 -38 hvcurveto
          -125 166 rmoveto
          108 -122 -687 122 109 76 vlineto
          107 64 54 99 hvcurveto
          163 vlineto
          100 -64 54 -107 vhcurveto
          endchar
        </CharString>
        <CharString name="U">
          44 callgsubr
          endchar
        </CharString>
        <CharString name="Uacute">
          68 251 839 -50 callsubr
          -35 -152 -61 callsubr
          endchar
        </CharString>
        <CharString name="Ucircumflex">
          68 243 782 -30 callgsubr
          110 -39 -61 callsubr
          endchar
        </CharString>
        <CharString name="Udieresis">
          68 110 782 -85 callsubr
          43 -95 -61 callsubr
          endchar
        </CharString>
        <CharString name="Ugrave">
          44 callgsubr
          -301 152 43 callgsubr
        </CharString>
        <CharString name="Uhungarumlaut">
          44 callgsubr
          -136 152 26 callsubr
          endchar
        </CharString>
        <CharString name="Umacron">
          44 callgsubr
          -324 130 186 callsubr
          endchar
        </CharString>
        <CharString name="Uogonek">
          68 313 687 rmoveto
          -518 vlineto
          -38 -20 -25 -50 -51 -18 25 38 vhcurveto
          518 -127 -524 vlineto
          -101 62 -72 134 11 11 1 1 10 vhcurveto
          -26 -28 -18 -35 -36 vvcurveto
          -48 32 -28 59 vhcurveto
          21 63 -11 hlineto
          -21 -10 10 26 34 16 33 22 23 hvcurveto
          68 27 33 57 73 vvcurveto
          524 vlineto
          endchar
        </CharString>
        <CharString name="Uring">
          68 165 783 -3 callgsubr
          39 -96 -61 callsubr
          endchar
        </CharString>
        <CharString name="V">
          48 327 687 rmoveto
          -53 -306 -16 -89 -19 -159 -4 -21 rlinecurve
          -4 21 -20 158 -17 91 -57 305 rcurveline
          -130 hlineto
          138 -687 rlineto
          177 hlineto
          137 687 rlineto
          endchar
        </CharString>
        <CharString name="W">
          180 477 687 rmoveto
          -43 -278 rlineto
          -11 -81 -8 -101 0 vvcurveto
          0 -12 101 -10 81 vhcurveto
          -37 278 rlineto
          -111 hlineto
          -39 -278 rlineto
          -12 -92 -11 -96 0 vvcurveto
          0 -6 96 -13 92 vhcurveto
          -42 278 rlineto
          -112 hlineto
          95 -687 rlineto
          126 hlineto
          47 292 rlineto
          14 91 9 110 0 vvcurveto
          0 10 -110 14 -91 vhcurveto
          46 -292 rlineto
          119 hlineto
          98 687 rlineto
          endchar
        </CharString>
        <CharString name="X">
          28 301 687 rmoveto
          -76 -210 -80 210 rlineto
          -138 hlineto
          148 -345 -148 -342 rlineto
          138 hlineto
          80 208 75 -208 329 callgsubr
          -149 342 149 345 rlineto
          endchar
        </CharString>
        <CharString name="Y">
          43 332 687 35 callsubr
          endchar
        </CharString>
        <CharString name="Yacute">
          43 332 687 35 callsubr
          -223 153 175 callgsubr
        </CharString>
        <CharString name="Ydieresis">
          43 99 782 -85 callsubr
          73 -95 35 callsubr
          endchar
        </CharString>
        <CharString name="Z">
          172 callsubr
          endchar
        </CharString>
        <CharString name="Zacute">
          -5 212 839 -50 callsubr
          -282 -152 rmoveto
          189 callsubr
          -234 vlineto
          341 callsubr
          vlineto
          endchar
        </CharString>
        <CharString name="Zcaron">
          -5 157 726 -54 callgsubr
          55 -731 rmoveto
          341 callsubr
          -360 189 callsubr
          vlineto
          endchar
        </CharString>
        <CharString name="Zdotaccent">
          172 callsubr
          -232 102 56 callsubr
        </CharString>
        <CharString name="a">
          -98 callgsubr
          endchar
        </CharString>
        <CharString name="aacute">
          -98 callgsubr
          -50 487 175 callgsubr
        </CharString>
        <CharString name="abreve">
          -98 callgsubr
          -4 487 45 callgsubr
          endchar
        </CharString>
        <CharString name="acircumflex">
          16 215 682 -30 callgsubr
          89 -514 rmoveto
          -11 -16 -26 -8 -26 hhcurveto
          -36 -12 17 30 hvcurveto
          28 vlineto
          40 8 15 42 12 vhcurveto
          66 17 rlineto
          -211 204 rmoveto
          8 21 56 13 57 hhcurveto
          61 16 -18 -39 1 hvcurveto
          -64 vlineto
          -118 -31 rlineto
          -87 -24 -37 -43 -84 vvcurveto
          -34 vlineto
          -97 41 -45 95 59 31 22 22 18 vhcurveto
          -42 120 420 vlineto
          108 -48 61 -139 -66 -55 -10 -9 -26 vhcurveto
          endchar
        </CharString>
        <CharString name="acute">
          -68 148 739 175 callgsubr
        </CharString>
        <CharString name="adieresis">
          -98 callgsubr
          -186 430 42 callsubr
        </CharString>
        <CharString name="ae">
          235 321 558 rmoveto
          20 -28 -41 11 -55 hhcurveto
          -66 -57 -13 -8 -21 hvcurveto
          -113 vlineto
          8 21 56 14 57 hhcurveto
          62 14 -21 -29 hvcurveto
          1 -65 -117 -36 rlineto
          -85 -26 -35 -42 -84 vvcurveto
          -35 vlineto
          -96 52 -47 96 65 50 12 22 33 vhcurveto
          -23 32 47 -13 64 hhcurveto
          76 33 10 8 32 hvcurveto
          113 vlineto
          -6 -22 -49 -13 -59 hhcurveto
          -62 -30 16 49 hvcurveto
          69 237 194 vlineto
          96 -51 64 -126 -55 -41 -15 -21 -28 vhcurveto
          -55 -446 rmoveto
          -13 -20 -27 -6 -23 hhcurveto
          -30 -18 14 33 hvcurveto
          28 vlineto
          40 8 16 42 11 vhcurveto
          68 19 rlineto
          237 179 rmoveto
          -94 -118 94 vlineto
          34 21 20 39 39 19 -20 -34 vhcurveto
          endchar
        </CharString>
        <CharString name="agrave">
          -98 callgsubr
          -158 487 43 callgsubr
        </CharString>
        <CharString name="amacron">
          -98 callgsubr
          -173 465 186 callsubr
          endchar
        </CharString>
        <CharString name="ampersand">
          72 311 169 rmoveto
          -38 -16 -26 -50 -50 -15 26 38 vhcurveto
          70 vlineto
          40 17 22 46 vhcurveto
          68 hlineto
          170 109 rmoveto
          -48 64 -122 -64 -69 hlineto
          -46 -14 22 42 hvcurveto
          43 vlineto
          36 17 23 74 51 39 -5 -13 34 vhcurveto
          119 vlineto
          9 -28 -43 7 -56 hhcurveto
          -149 -66 -65 -97 hvcurveto
          -59 vlineto
          -60 28 -38 42 -15 vhcurveto
          -46 -14 -26 -37 -61 vvcurveto
          -81 vlineto
          -101 58 355 callsubr
          54 72 101 vhcurveto
          135 48 vlineto
          endchar
        </CharString>
        <CharString name="aogonek">
          16 264 112 rmoveto
          -11 -16 -26 -8 -26 hhcurveto
          -36 -12 17 30 hvcurveto
          28 vlineto
          40 8 15 42 12 vhcurveto
          66 17 rlineto
          -211 204 rmoveto
          8 21 56 13 57 hhcurveto
          61 16 -18 -39 1 hvcurveto
          -64 vlineto
          -118 -31 rlineto
          -87 -24 -37 -43 -84 vvcurveto
          -34 vlineto
          -97 41 -45 95 59 31 22 22 18 vhcurveto
          -42 70 vlineto
          -25 callgsubr
          2 420 hlineto
          108 -48 61 -139 -66 -55 -10 -9 -26 vhcurveto
          endchar
        </CharString>
        <CharString name="apostrophemod">
          209 callgsubr
        </CharString>
        <CharString name="approxequal">
          160 429 315 106 callgsubr
          -112 207 106 callgsubr
          endchar
        </CharString>
        <CharString name="aring">
          -98 callgsubr
          -134 431 -3 callgsubr
          endchar
        </CharString>
        <CharString name="asciicircum">
          -13 402 394 rmoveto
          -127 322 rlineto
          -146 hlineto
          -128 -322 rlineto
          125 hlineto
          75 239 75 -239 rlineto
          endchar
        </CharString>
        <CharString name="asciitilde">
          150 424 428 rmoveto
          10 -57 -39 -8 -48 18 -127 46 rcurveline
          -98 35 -97 -26 -118 vvcurveto
          -27 4 -24 0 vhcurveto
          112 hlineto
          -10 57 40 8 48 -18 126 -46 rcurveline
          98 -35 98 26 118 vvcurveto
          29 -5 22 0 vhcurveto
          endchar
        </CharString>
        <CharString name="asterisk">
          120 502 611 rmoveto
          -36 112 -88 -30 -25 -8 -19 -9 -14 -9 rlinecurve
          4 17 3 20 26 vvcurveto
          93 -117 -93 vlineto
          -25 3 -21 4 -16 vhcurveto
          -14 9 -19 9 -24 8 -88 28 rcurveline
          -36 -111 88 -28 24 -8 21 -4 17 -1 rlinecurve
          -13 -11 -15 -15 -15 -20 -54 -75 rcurveline
          95 -69 54 74 15 20 10 19 6 16 rlinecurve
          6 -16 9 -19 15 -20 55 -74 rcurveline
          95 69 -55 74 -15 21 -15 15 -13 11 rlinecurve
          17 1 21 3 25 8 rrcurveto
          endchar
        </CharString>
        <CharString name="at">
          482 495 146 rmoveto
          0 -24 -14 -27 -30 -9 9 24 vhcurveto
          26 vlineto
          31 11 9 27 10 vhcurveto
          52 17 rlineto
          51 -389 rmoveto
          99 -90 vlineto
          -254 -31 127 187 185 29 130 256 257 26 -123 -188 -141 -24 -38 -56 -48 -19 19 50 hvcurveto
          231 vlineto
          79 -44 40 -101 -51 -47 -10 -7 -23 vhcurveto
          -85 vlineto
          9 30 40 10 51 hhcurveto
          41 7 -16 -25 hvcurveto
          -58 vlineto
          -98 -34 rlineto
          -60 -22 -30 -34 -66 vvcurveto
          -24 vlineto
          -72 36 -41 78 51 30 11 10 17 vhcurveto
          -39 25 47 -20 61 hhcurveto
          119 74 67 206 246 -75 164 -314 -309 -84 -170 -244 -245 80 -168 312 hvcurveto
          endchar
        </CharString>
        <CharString name="atilde">
          -98 callgsubr
          17 483 -51 callsubr
        </CharString>
        <CharString name="b">
          40 52 739 rmoveto
          -739 213 vlineto
          88 64 45 102 hvcurveto
          312 vlineto
          87 -55 41 -74 -48 -39 -10 -8 -22 vhcurveto
          170 vlineto
          108 -309 rmoveto
          -264 vlineto
          -34 -20 -15 -35 vhcurveto
          -52 337 hlineto
          8 16 24 7 25 hhcurveto
          27 15 -12 -27 hvcurveto
          endchar
        </CharString>
        <CharString name="backslash">
          41 37 845 rmoveto
          270 -1014 rlineto
          118 hlineto
          -271 1014 rlineto
          endchar
        </CharString>
        <CharString name="bar">
          -199 65 858 rmoveto
          -1037 87 1037 vlineto
          endchar
        </CharString>
        <CharString name="braceleft">
          -24 241 676 rmoveto
          28 15 19 37 vhcurveto
          36 109 -45 hlineto
          -99 -54 -66 -96 hvcurveto
          -220 vlineto
          -41 -26 -21 -45 vhcurveto
          -5 -109 5 hlineto
          45 26 -22 -41 hvcurveto
          -221 vlineto
          -96 54 -65 99 vhcurveto
          45 109 -36 hlineto
          -37 -15 18 29 hvcurveto
          201 vlineto
          82 -18 48 -73 13 vhcurveto
          73 13 18 54 82 vvcurveto
          endchar
        </CharString>
        <CharString name="braceright">
          -26 330 388 rmoveto
          -45 -26 21 41 hvcurveto
          220 vlineto
          96 -54 66 -99 vhcurveto
          -45 -109 36 hlineto
          37 14 -19 -28 hvcurveto
          -193 vlineto
          -82 18 -54 73 -13 vhcurveto
          -73 -13 -18 -48 -82 vvcurveto
          -201 vlineto
          -29 -14 -18 -37 vhcurveto
          -36 -109 45 hlineto
          99 54 65 96 hvcurveto
          221 vlineto
          41 26 22 45 vhcurveto
          4 109 hlineto
          endchar
        </CharString>
        <CharString name="bracketleft">
          -67 190 -68 rmoveto
          814 121 99 -225 -1014 225 101 vlineto
          endchar
        </CharString>
        <CharString name="bracketright">
          -67 40 845 rmoveto
          -99 121 -814 -121 -101 224 1014 vlineto
          endchar
        </CharString>
        <CharString name="breve">
          -68 223 739 45 callgsubr
          endchar
        </CharString>
        <CharString name="brokenbar">
          65 858 rmoveto
          -387 87 387 vlineto
          -87 -650 rmoveto
          -387 87 387 vlineto
          endchar
        </CharString>
        <CharString name="bullet">
          -161 35 334 rmoveto
          -52 21 -40 71 70 22 40 52 52 -22 40 -70 -71 -21 -40 -52 vhcurveto
          endchar
        </CharString>
        <CharString name="c">
          -44 42 424 rmoveto
          -264 vlineto
          -109 62 -56 126 58 31 6 9 31 vhcurveto
          118 vlineto
          41 callsubr
          endchar
        </CharString>
        <CharString name="cacute">
          -44 235 739 -50 callsubr
          -290 -315 rmoveto
          -264 vlineto
          -109 62 -56 126 58 31 6 9 31 vhcurveto
          118 vlineto
          41 callsubr
          endchar
        </CharString>
        <CharString name="caron">
          -68 214 739 rmoveto
          -39 -56 -40 56 rlineto
          -64 hlineto
          57 -113 rlineto
          93 hlineto
          57 113 rlineto
          endchar
        </CharString>
        <CharString name="ccaron">
          -44 180 626 -54 callgsubr
          47 -325 rmoveto
          42 22 16 58 41 36 -9 -6 22 vhcurveto
          117 vlineto
          9 -30 -31 6 -58 hhcurveto
          -126 -62 -57 -108 hvcurveto
          -264 vlineto
          -109 62 -56 126 58 31 6 9 31 vhcurveto
          118 vlineto
          -7 -22 -36 -9 -42 hhcurveto
          -58 -22 15 43 hvcurveto
          endchar
        </CharString>
        <CharString name="ccedilla">
          -44 350 128 rmoveto
          41 callsubr
          -264 vlineto
          -94 46 -54 93 -14 vhcurveto
          -16 -73 58 callgsubr
          8 34 rlineto
          53 30 6 9 30 hvcurveto
          endchar
        </CharString>
        <CharString name="cedilla">
          -68 142 6 rmoveto
          -18 -81 58 callgsubr
          10 45 rlineto
          endchar
        </CharString>
        <CharString name="cent">
          -33 354 128 rmoveto
          -7 -22 -36 -9 -42 hhcurveto
          -58 -22 15 43 hvcurveto
          244 vlineto
          42 22 16 58 41 36 -9 -6 22 vhcurveto
          117 vlineto
          -19 6 -19 4 -26 3 rrcurveto
          68 -118 -72 vlineto
          -84 -17 -41 -54 -88 vvcurveto
          -264 vlineto
          -88 40 -53 81 -18 vhcurveto
          -71 118 67 vlineto
          28 2 21 5 20 6 rrcurveto
          endchar
        </CharString>
        <CharString name="circumflex">
          -68 278 626 rmoveto
          -57 113 rlineto
          -93 hlineto
          -57 -113 rlineto
          64 hlineto
          40 56 39 -56 rlineto
          endchar
        </CharString>
        <CharString name="colon">
          -177 36 410 267 callsubr
          -350 vmoveto
          79 callgsubr
          endchar
        </CharString>
        <CharString name="comma">
          -220 230 callgsubr
          endchar
        </CharString>
        <CharString name="copyright">
          284 38 332 rmoveto
          -193 59 -139 254 251 61 142 190 195 -55 138 -257 -253 -60 -141 -192 vhcurveto
          188 60 rmoveto
          -118 vlineto
          -75 37 -45 98 43 29 9 1 5 vhcurveto
          78 vlineto
          -6 -34 -15 -1 -27 hhcurveto
          -43 -4 17 24 hvcurveto
          114 vlineto
          24 4 17 43 27 15 -2 -6 33 vhcurveto
          79 vlineto
          2 -5 -28 8 -43 hhcurveto
          -98 -37 -45 -75 hvcurveto
          343 -60 rmoveto
          -140 -19 -103 -199 -203 -16 100 143 142 14 101 205 207 11 -99 -144 vhcurveto
          endchar
        </CharString>
        <CharString name="currency">
          42 166 392 rmoveto
          40 17 23 49 49 17 -24 -39 vhcurveto
          -97 vlineto
          -40 -17 -24 -49 -49 -17 25 39 vhcurveto
          255 101 rmoveto
          32 -5 28 -12 25 vhcurveto
          48 47 -74 74 -51 -52 rlineto
          11 -26 -31 5 -38 hhcurveto
          -37 -31 -5 -10 -26 hvcurveto
          -51 51 -73 -74 47 -46 rlineto
          -12 -25 -6 -29 -32 vvcurveto
          -105 vlineto
          -32 6 -29 12 -25 vhcurveto
          -48 -47 73 -73 51 51 rlineto
          -10 26 31 -6 38 hhcurveto
          37 32 5 11 25 hvcurveto
          51 -51 74 73 -48 47 rlineto
          12 25 6 29 32 vvcurveto
          endchar
        </CharString>
        <CharString name="d">
          40 75 callgsubr
          endchar
        </CharString>
        <CharString name="dagger">
          -39 132 817 rmoveto
          -76 9 -85 0 vhcurveto
          237 callsubr
          0 -9 -85 -98 vvcurveto
          -421 118 421 vlineto
          98 -9 85 0 vhcurveto
          0 52 -8 62 vhcurveto
          99 vlineto
          -62 -52 -9 0 hvcurveto
          0 9 85 76 vvcurveto
          endchar
        </CharString>
        <CharString name="daggerdbl">
          -38 132 817 rmoveto
          -76 8 -85 0 vhcurveto
          237 callsubr
          -2 -84 0 -188 2 -89 rrcurveto
          237 callsubr
          0 -8 -55 -106 vvcurveto
          117 hlineto
          106 -8 55 0 vhcurveto
          335 callgsubr
          2 89 0 189 -2 83 rrcurveto
          335 callgsubr
          0 8 85 76 vvcurveto
          endchar
        </CharString>
        <CharString name="danda">
          -107 142 hmoveto
          350 callgsubr
          endchar
        </CharString>
        <CharString name="dcaron">
          61 75 callgsubr
          192 269 rmoveto
          -26 -146 rlineto
          45 hlineto
          16 23 141 callsubr
          endchar
        </CharString>
        <CharString name="dcroat">
          42 280 131 rmoveto
          -10 -12 -26 -9 -27 hhcurveto
          -30 -13 15 28 hvcurveto
          254 vlineto
          42 22 19 39 vhcurveto
          47 hlineto
          168 222 rmoveto
          -40 47 -129 -47 -126 -59 126 -49 -58 hlineto
          -119 -58 -67 -104 hvcurveto
          -279 vlineto
          -86 44 -52 88 60 34 29 14 13 vhcurveto
          -39 125 633 40 vlineto
          endchar
        </CharString>
        <CharString name="degree">
          2 45 667 rmoveto
          -99 46 -72 119 118 48 72 99 99 -48 72 -118 -119 -46 -72 -99 vhcurveto
          226 hmoveto
          -47 -14 -28 -47 -48 -12 28 47 46 12 29 48 47 14 -29 -46 vhcurveto
          endchar
        </CharString>
        <CharString name="dieresis">
          -68 43 682 42 callsubr
        </CharString>
        <CharString name="divide">
          62 41 383 rmoveto
          -109 397 109 vlineto
          -264 -226 rmoveto
          -36 15 -29 51 50 330 callsubr
          343 vmoveto
          258 callsubr
        </CharString>
        <CharString name="dollar">
          6 206 415 rmoveto
          -42 23 -12 15 40 vvcurveto
          24 vlineto
          34 17 23 62 58 44 -10 -14 33 vhcurveto
          122 vlineto
          -16 6 -33 9 -47 3 rrcurveto
          54 -119 -59 vlineto
          -88 -19 -41 -55 -79 vvcurveto
          -61 vlineto
          -74 38 -43 56 -32 vhcurveto
          110 -59 rlineto
          36 -20 12 -14 -34 vvcurveto
          -23 vlineto
          -34 -27 -25 -69 -58 -56 13 14 -34 vhcurveto
          -123 vlineto
          17 -7 43 -10 53 -4 rrcurveto
          -55 120 62 vlineto
          93 19 46 54 80 vvcurveto
          60 vlineto
          66 -28 39 -54 29 vhcurveto
          endchar
        </CharString>
        <CharString name="dotaccent">
          -68 122 689 56 callsubr
        </CharString>
        <CharString name="dotlessi">
          94 callgsubr
          endchar
        </CharString>
        <CharString name="dottedcircle">
          242 139 517 rmoveto
          -26 18 -19 26 26 18 19 26 25 -18 19 -26 -26 -18 -19 -25 vhcurveto
          -82 -110 rmoveto
          -25 20 -19 26 24 20 19 25 25 -20 19 -24 -26 -20 -19 -25 vhcurveto
          -13 -126 rmoveto
          -25 19 -18 25 26 18 18 358 callsubr
          52 -116 rmoveto
          -26 18 -18 26 25 19 18 26 25 -19 19 -25 -26 -18 -19 -25 vhcurveto
          101 -75 rmoveto
          -26 19 -20 26 25 19 20 26 24 -19 20 -25 -26 -19 -20 -24 vhcurveto
          127 -16 rmoveto
          -26 18 -18 26 26 19 18 26 26 -19 18 -26 -26 -18 -18 -26 vhcurveto
          121 53 rmoveto
          -26 19 -18 25 25 20 18 26 25 -20 19 -25 -25 -19 -19 -25 vhcurveto
          73 98 rmoveto
          -25 19 -19 26 24 19 19 25 26 -19 19 -24 -26 -19 -19 -26 vhcurveto
          10 134 rmoveto
          -26 18 -18 26 25 19 18 26 26 -19 18 -25 -26 -18 -18 -26 vhcurveto
          -50 118 rmoveto
          -25 19 -19 25 26 18 19 358 callsubr
          -95 68 rmoveto
          -24 19 -20 26 25 18 20 24 26 -18 19 -25 -26 -19 -19 -26 vhcurveto
          -126 15 rmoveto
          -26 18 -18 26 26 18 18 26 26 -18 18 -26 -26 -18 -18 -26 vhcurveto
          endchar
        </CharString>
        <CharString name="doubledanda">
          25 62 hmoveto
          350 callgsubr
          212 -665 rmoveto
          350 callgsubr
          endchar
        </CharString>
        <CharString name="dvA">
          177 426 -10 callgsubr
          -350 -94 vlineto
          -49 callgsubr
          86 99 vlineto
          endchar
        </CharString>
        <CharString name="dvAA">
          403 857 -10 callgsubr
          -424 -350 -88 callsubr
          102 194 callgsubr
        </CharString>
        <CharString name="dvAI">
          19 392 -10 callgsubr
          -154 230 rlineto
          -131 hlineto
          164 -230 rlineto
          -306 -99 84 -399 hlineto
          334 callgsubr
          107 vlineto
          -10 -35 -38 -8 -50 hhcurveto
          -62 -19 24 43 hvcurveto
          395 180 callsubr
          vlineto
          endchar
        </CharString>
        <CharString name="dvAU">
          404 766 -10 callgsubr
          -43 137 rlineto
          -15 callsubr
          -97 -350 -88 callsubr
          102 -566 -31 callgsubr
        </CharString>
        <CharString name="dvAbbreviationsign">
          2 45 327 rmoveto
          -99 46 -69 119 118 48 69 99 98 -48 70 -118 -119 -46 -70 -98 vhcurveto
          105 -1 rmoveto
          47 12 25 48 47 14 -25 -47 -46 -14 -25 -47 -48 -12 25 46 vhcurveto
          endchar
        </CharString>
        <CharString name="dvAcandra">
          177 426 315 rmoveto
          -88 callsubr
          86 99 -204 vlineto
          139 221 36 callgsubr
        </CharString>
        <CharString name="dvAnusvara">
          -418 -175 792 39 callgsubr
          endchar
        </CharString>
        <CharString name="dvAnusvara.amI">
          -418 39 795 39 callgsubr
          endchar
        </CharString>
        <CharString name="dvAvagraha">
          3 392 192 rmoveto
          66 -11 42 -66 44 vhcurveto
          -124 82 rlineto
          -31 21 -10 16 32 vvcurveto
          15 vlineto
          25 6 20 45 vhcurveto
          167 110 -175 hlineto
          -119 -42 -54 -95 hvcurveto
          -26 vlineto
          -59 24 -45 50 -33 vhcurveto
          128 -85 rlineto
          32 -21 8 -17 -35 vvcurveto
          -40 vlineto
          -27 -10 -23 -49 vhcurveto
          -6 hlineto
          -49 -10 23 27 hvcurveto
          62 -118 -58 vlineto
          -106 52 -58 122 vhcurveto
          14 hlineto
          121 51 58 106 hvcurveto
          endchar
        </CharString>
        <CharString name="dvB">
          -161 -35 -10 callgsubr
          -99 456 99 vlineto
          -386 -323 rmoveto
          -120 vlineto
          -105 55 -59 132 126 57 56 108 vhcurveto
          120 vlineto
          108 -57 56 -126 -139 -48 -59 -105 vhcurveto
          265 -91 54 callgsubr
          endchar
        </CharString>
        <CharString name="dvBA">
          38 147 310 -63 callsubr
          -328 269 rmoveto
          -99 328 152 callsubr
          99 vlineto
          endchar
        </CharString>
        <CharString name="dvBH">
          10 250 137 callsubr
          259 100 rmoveto
          -141 -8 callgsubr
          146 vlineto
          endchar
        </CharString>
        <CharString name="dvBHA">
          212 251 137 callsubr
          100 vmoveto
          -49 hlineto
          -116 -47 -54 -88 hvcurveto
          -81 122 callgsubr
          -205 -28 callsubr
          endchar
        </CharString>
        <CharString name="dvBH_LA">
          642 250 137 callsubr
          173 342 rmoveto
          -99 468 -84 vlineto
          2 -6 -21 5 -28 hhcurveto
          -57 -28 -73 callsubr
          -62 hhcurveto
          -70 -48 -24 -43 -25 hvcurveto
          -110 -8 callgsubr
          94 -149 vlineto
          -26 callsubr
          27 21 2 2 16 vhcurveto
          116 callgsubr
          162 callsubr
        </CharString>
        <CharString name="dvBH_NA">
          597 656 207 -104 callsubr
          -406 -112 -24 callsubr
          179 342 rmoveto
          -99 417 -78 -236 vlineto
          -73 -45 -23 -42 -22 hvcurveto
          -102 94 260 callsubr
          -22 4 -19 84 callgsubr
          -4 18 20 165 callsubr
          -116 -47 -54 -88 hvcurveto
          67 callsubr
          89 -117 -99 callsubr
          87 -379 264 callgsubr
        </CharString>
        <CharString name="dvBH_R">
          30 512 444 rmoveto
          -142 73 hlineto
          146 callsubr
          -15 3 -14 178 callgsubr
          11 15 vvcurveto
          27 6 20 40 41 5 -19 -28 vhcurveto
          -70 -49 vlineto
          -115 -48 -54 -89 hvcurveto
          -34 vlineto
          -89 48 -55 115 114 49 55 89 vhcurveto
          77 146 vlineto
          -34 vmoveto
          -311 -365 329 callgsubr
          71 82 47 54 43 74 11 29 rlinecurve
          -260 86 100 callgsubr
          endchar
        </CharString>
        <CharString name="dvBH_RA">
          215 464 253 rmoveto
          -263 -308 329 callgsubr
          66 75 38 43 28 50 7 22 rlinecurve
          2 hlineto
          -7 -43 -3 -53 -33 vvcurveto
          -12 111 572 86 99 -204 41 callgsubr
          -115 -48 -54 -89 hvcurveto
          -34 vlineto
          -89 48 -55 115 114 49 55 89 vhcurveto
          77 98 vlineto
          -212 -74 100 callgsubr
          endchar
        </CharString>
        <CharString name="dvBH_R_YA">
          520 769 231 rmoveto
          -25 -17 -26 -10 -45 hhcurveto
          -78 -31 30 55 hvcurveto
          35 vlineto
          78 3 39 40 78 vvcurveto
          75 vlineto
          31 -8 20 -4 3 vhcurveto
          92 hlineto
          -518 -296 176 callgsubr
          26 30 callsubr
          172 323 rmoveto
          -99 126 vlineto
          16 9 -17 -37 hvcurveto
          -53 vlineto
          -32 -9 -18 -24 -8 vhcurveto
          27 -20 -37 12 -59 hhcurveto
          -56 77 260 callsubr
          -15 2 -23 84 callgsubr
          -2 21 14 49 callgsubr
          -74 -49 vlineto
          245 callgsubr
          -33 -4 callgsubr
          75 54 vlineto
          16 13 -1 -4 9 hvcurveto
          -69 vlineto
          -16 2 -15 3 -14 vhcurveto
          -236 -276 329 callgsubr
          71 82 29 34 28 41 19 33 rlinecurve
          -33 39 57 -16 68 hhcurveto
          43 31 6 12 20 hvcurveto
          -104 162 callsubr
        </CharString>
        <CharString name="dvBH_VA">
          442 697 166 rmoveto
          -4 -11 -22 -4 -26 hhcurveto
          -45 -20 -27 callsubr
          -447 -195 -24 callsubr
          179 342 rmoveto
          -99 262 -69 vlineto
          3 -13 -28 6 -32 hhcurveto
          -83 -47 -30 -53 -19 hvcurveto
          -101 -8 callgsubr
          95 -115 vlineto
          -97 43 -54 117 33 27 5 4 13 vhcurveto
          -66 162 callsubr
        </CharString>
        <CharString name="dvBH_YA">
          520 769 204 rmoveto
          -5 -23 -29 -3 -33 hhcurveto
          -77 -17 callsubr
          172 339 183 callgsubr
          -36 -11 -18 -32 -7 vhcurveto
          20 -21 -35 9 -50 hhcurveto
          -56 54 callsubr
          245 callgsubr
          -84 53 callsubr
          162 callsubr
        </CharString>
        <CharString name="dvB_BA">
          310 420 310 rmoveto
          146 -137 rlineto
          -10 vlineto
          -3 -18 -19 -4 -32 hhcurveto
          -58 -19 26 38 hvcurveto
          -273 86 2 callsubr
          419 34 rmoveto
          -135 124 rlineto
          15 11 20 9 35 hhcurveto
          30 21 -6 -6 18 hvcurveto
          198 269 rmoveto
          -799 -99 601 225 callgsubr
          -116 -61 -41 -116 hvcurveto
          -95 vlineto
          -152 125 -60 callgsubr
          136 57 41 14 24 27 vhcurveto
          -27 31 47 -11 61 hhcurveto
          33 28 4 5 15 hvcurveto
          -67 340 callsubr
        </CharString>
        <CharString name="dvB_BHA">
          474 254 -10 callgsubr
          -289 -99 289 hlineto
          258 -363 rmoveto
          -28 -7 80 callgsubr
          74 76 callsubr
          48 hlineto
          -365 -17 153 callsubr
          25 45 hvcurveto
          576 439 rmoveto
          67 callgsubr
          -21 3 -20 178 callgsubr
          22 16 155 callgsubr
          5 -19 -28 vhcurveto
          -91 -48 vlineto
          -116 -47 -54 -88 hvcurveto
          -21 vlineto
          -145 119 -60 callgsubr
          132 52 39 12 23 28 vhcurveto
          -24 26 40 -13 57 hhcurveto
          11 callgsubr
          89 hvcurveto
          123 97 -323 91 callsubr
        </CharString>
        <CharString name="dvB_BH_RA">
          474 255 -10 callgsubr
          -290 -99 290 hlineto
          257 -296 100 callgsubr
          -365 -38 153 callsubr
          25 45 hvcurveto
          577 439 rmoveto
          41 callgsubr
          -115 -48 -54 -89 hvcurveto
          -34 vlineto
          -6 vlineto
          -144 118 -60 callgsubr
          132 81 49 29 51 22 vhcurveto
          -10 24 29 -5 36 hhcurveto
          114 49 55 89 hvcurveto
          136 callgsubr
        </CharString>
        <CharString name="dvB_DA">
          271 147 306 2 callsubr
          487 164 179 callgsubr
          -759 -99 551 -69 -45 vlineto
          -116 204 callsubr
          -87 vlineto
          -144 118 -60 callgsubr
          136 56 39 13 24 26 vhcurveto
          -20 26 37 -10 49 hhcurveto
          30 22 3 4 16 hvcurveto
          85 callgsubr
        </CharString>
        <CharString name="dvB_DHA">
          341 147 306 153 callsubr
          25 45 hvcurveto
          442 439 128 callsubr
          -542 -99 352 hlineto
          0 -11 47 callsubr
          -6 vlineto
          -144 118 -60 callgsubr
          132 58 41 15 27 27 vhcurveto
          -27 32 48 -14 62 hhcurveto
          45 32 5 6 22 hvcurveto
          -70 91 callsubr
        </CharString>
        <CharString name="dvB_DH_VA">
          587 841 166 rmoveto
          -4 -11 -22 -4 -26 hhcurveto
          -44 -21 -27 callsubr
          -694 -92 274 callgsubr
          441 439 -49 callsubr
          -516 -99 348 150 callgsubr
          -12 149 callgsubr
          61 42 17 30 27 vhcurveto
          -25 34 50 -15 68 hhcurveto
          58 47 12 12 37 hvcurveto
          -21 26 37 -11 53 hhcurveto
          33 27 5 4 13 hvcurveto
          -66 91 callsubr
        </CharString>
        <CharString name="dvB_JA">
          492 300 251 54 callgsubr
          791 439 rmoveto
          -973 20 callgsubr
          79 hlineto
          endchar
        </CharString>
        <CharString name="dvB_JHA">
          607 856 324 rmoveto
          -292 hlineto
          -35 260 callgsubr
          200 164 92 hlineto
          -709 -275 153 callsubr
          24 46 hvcurveto
          913 454 rmoveto
          -1095 -99 681 -62 -82 hlineto
          -108 -54 -39 -97 hvcurveto
          -9 vlineto
          -13 1 -11 2 -11 vhcurveto
          -105 -78 hlineto
          -145 117 rlineto
          19 11 21 10 37 hhcurveto
          22 19 -4 0 hvcurveto
          98 vlineto
          0 -22 4 -28 -132 70 callgsubr
          55 -59 132 133 40 70 84 vhcurveto
          28 210 vlineto
          40 callgsubr
          -7 22 -11 12 vhcurveto
          98 -231 -94 callgsubr
          hlineto
          endchar
        </CharString>
        <CharString name="dvB_J_YA">
          804 1053 204 rmoveto
          -5 -23 -28 -3 -34 hhcurveto
          -77 137 callgsubr
          -753 -273 rmoveto
          10 -103 90 -17 vhcurveto
          -2 10 8 1 19 -4 rrcurveto
          40 55 -70 -35 hvcurveto
          -56 -131 rmoveto
          -41 -56 71 35 -11 103 -89 17 hvcurveto
          3 -9 -8 -2 -18 5 rrcurveto
          1014 501 rmoveto
          -1213 -99 806 240 callgsubr
          -9 vhcurveto
          53 -10 -49 30 -95 hhcurveto
          -218 -109 60 hlineto
          0 10 -16 -37 vvcurveto
          -111 vlineto
          -41 -26 -18 -46 -21 -23 5 5 -21 vhcurveto
          6 13 3 17 22 vvcurveto
          -17 -9 65 -23 vhcurveto
          -22 90 -58 56 -103 18 rrcurveto
          -118 -37 -4 -88 17 10 -65 22 hvcurveto
          23 -88 54 -59 111 -17 rrcurveto
          36 29 0 4 22 hvcurveto
          -27 -56 rlineto
          -12 37 56 -14 57 hhcurveto
          118 306 callsubr
          122 vlineto
          34 132 callgsubr
          15 hlineto
          61 22 -8 -37 hvcurveto
          -79 vlineto
          -122 93 114 callgsubr
        </CharString>
        <CharString name="dvB_JxA">
          492 334 20 38 callsubr
          -34 231 54 callgsubr
          798 439 rmoveto
          -980 20 callgsubr
          86 hlineto
          endchar
        </CharString>
        <CharString name="dvB_LA">
          494 147 306 2 callsubr
          801 439 rmoveto
          -983 -99 778 -84 hlineto
          2 callgsubr
          -82 -1 vlineto
          -152 125 -60 callgsubr
          136 42 34 8 13 25 vhcurveto
          -53 27 55 -26 92 hhcurveto
          27 21 2 2 16 hvcurveto
          -56 callgsubr
        </CharString>
        <CharString name="dvB_L_YA">
          788 1037 -102 callgsubr
          -890 -260 274 callgsubr
          1094 439 rmoveto
          -1276 -99 869 hlineto
          0 8 -17 -37 vvcurveto
          -54 vlineto
          -29 -7 -17 -20 -10 vhcurveto
          54 -20 -46 33 -77 hhcurveto
          -55 -30 -73 callsubr
          -62 hhcurveto
          -108 -49 -57 -97 hvcurveto
          -76 149 callgsubr
          39 32 7 13 24 vhcurveto
          -52 25 52 -26 91 hhcurveto
          22 31 2 1 12 hvcurveto
          113 callgsubr
          -14 -28 0 -17 15 callgsubr
          9 20 38 266 callsubr
          -66 -67 callsubr
        </CharString>
        <CharString name="dvB_NA">
          430 489 207 -104 callsubr
          -342 -19 rmoveto
          133 -105 rlineto
          -23 -8 -19 -12 -37 hhcurveto
          -54 -15 25 45 hvcurveto
          138 39 rmoveto
          -130 103 rlineto
          18 9 18 10 34 hhcurveto
          57 12 -24 -46 hvcurveto
          598 339 rmoveto
          -918 -99 714 -78 -236 hlineto
          -48 -36 -10 -19 -25 hvcurveto
          22 -26 -38 13 -55 hhcurveto
          -132 -48 -59 -105 hvcurveto
          -108 vlineto
          -105 48 -59 132 51 36 11 19 26 vhcurveto
          -22 25 38 -11 52 142 callgsubr
          -36 callgsubr
        </CharString>
        <CharString name="dvB_R">
          -160 149 310 rmoveto
          145 -107 rlineto
          -19 -11 -21 -10 -37 hhcurveto
          -58 -18 24 46 hvcurveto
          153 30 rmoveto
          -144 106 rlineto
          18 10 21 10 36 hhcurveto
          57 20 -24 -47 hvcurveto
          -266 -98 rmoveto
          -93 44 -53 97 -13 vhcurveto
          -158 -161 rlineto
          145 hlineto
          141 143 rlineto
          61 62 41 36 79 vvcurveto
          103 vlineto
          108 -58 56 -126 -139 -48 -59 -105 vhcurveto
          -71 323 rmoveto
          -99 464 99 vlineto
          endchar
        </CharString>
        <CharString name="dvB_RA">
          39 149 258 callgsubr
          146 28 rmoveto
          -135 124 rlineto
          15 11 20 9 35 hhcurveto
          30 21 -6 -6 18 hvcurveto
          -330 269 rmoveto
          -99 330 -72 vlineto
          185 callgsubr
          -116 -61 -41 -116 hvcurveto
          -122 192 callgsubr
          99 vlineto
          endchar
        </CharString>
        <CharString name="dvB_SA">
          470 719 371 rmoveto
          -92 11 hlineto
          130 -73 callgsubr
          99 hlineto
          -572 -260 2 callsubr
          776 439 rmoveto
          -958 -99 537 hlineto
          -93 callsubr
          110 -118 -191 vlineto
          -145 119 rlineto
          19 10 21 10 37 hhcurveto
          15 12 -3 0 hvcurveto
          99 vlineto
          0 -16 2 -20 -132 70 callgsubr
          55 -59 136 39 32 7 12 25 vhcurveto
          -51 29 59 -31 89 hhcurveto
          61 44 9 12 34 hvcurveto
          -48 callgsubr
        </CharString>
        <CharString name="dvB_SHA">
          472 254 -10 callgsubr
          -289 -99 289 hlineto
          -107 -260 2 callsubr
          283 246 rmoveto
          -2 10 -2 12 16 vvcurveto
          28 9 23 43 43 9 -21 -28 vhcurveto
          -122 vlineto
          -28 -9 -20 -43 -24 -22 6 2 -6 vhcurveto
          53 -118 -149 vlineto
          -152 125 -60 callgsubr
          136 44 35 8 16 26 vhcurveto
          -50 29 54 -32 85 hhcurveto
          59 42 9 12 36 hvcurveto
          180 callgsubr
          -31 57 callgsubr
          65 vlineto
          -3 6 28 321 callsubr
          -54 57 -116 -117 -53 -57 -97 -16 2 -17 2 -11 vhcurveto
          409 193 rmoveto
          -665 -31 callgsubr
        </CharString>
        <CharString name="dvB_TA">
          305 147 306 2 callsubr
          611 439 rmoveto
          -793 -99 589 -76 hlineto
          337 callgsubr
          -83 vlineto
          -152 125 -60 callgsubr
          136 38 30 6 11 23 vhcurveto
          -50 17 42 -27 83 276 callgsubr
          49 27 29 -6 -1 6 vhcurveto
          -382 131 callsubr
        </CharString>
        <CharString name="dvB_VA">
          285 539 -95 callsubr
          -392 -92 rmoveto
          146 -119 rlineto
          -21 -10 -20 -10 -35 hhcurveto
          -62 317 callgsubr
          591 439 rmoveto
          -773 -99 569 -69 hlineto
          238 callgsubr
          -93 vlineto
          -144 118 -60 callgsubr
          136 51 38 13 21 25 vhcurveto
          -23 26 39 -12 55 64 callgsubr
        </CharString>
        <CharString name="dvB_YA">
          364 614 -102 callgsubr
          -467 -260 2 callsubr
          671 439 rmoveto
          -853 -99 447 hlineto
          -46 callsubr
          -6 vlineto
          -145 119 -60 callgsubr
          136 75 47 24 41 26 vhcurveto
          -25 39 51 -12 59 -30 callsubr
        </CharString>
        <CharString name="dvC">
          318 callgsubr
          7 -397 rmoveto
          -5 -16 -30 -4 -23 hhcurveto
          -42 -25 206 callgsubr
          53 -51 111 29 40 4 6 21 vhcurveto
          endchar
        </CharString>
        <CharString name="dvCA">
          63 192 322 rmoveto
          264 callsubr
          -258 -106 67 280 callgsubr
          50 -51 112 28 28 3 6 21 vhcurveto
          -65 271 callsubr
          -551 -99 347 -397 vlineto
          351 callsubr
          -21 17 38 hvcurveto
          endchar
        </CharString>
        <CharString name="dvCH">
          123 339 499 rmoveto
          285 callgsubr
          -155 161 callgsubr
          350 99 -611 134 callsubr
          181 vlineto
          98 -61 47 -100 vhcurveto
          endchar
        </CharString>
        <CharString name="dvCHA">
          123 47 375 rmoveto
          -47 12 -31 32 -17 vhcurveto
          -34 -17 -15 -33 -42 105 callgsubr
          139 99 -611 -99 93 vlineto
          356 callgsubr
          118 hmoveto
          37 11 17 0 vhcurveto
          151 -67 hlineto
          -37 -26 -9 0 hvcurveto
          -98 vlineto
          0 20 9 33 46 18 -19 -48 vhcurveto
          -155 vlineto
          -48 -16 298 callsubr
          11 vlineto
          39 16 10 43 vhcurveto
          66 104 -70 220 callgsubr
          endchar
        </CharString>
        <CharString name="dvCH_RA">
          123 161 179 rmoveto
          -56 callsubr
          -155 vlineto
          -48 -16 298 callsubr
          415 398 rmoveto
          99 -611 -99 93 vlineto
          133 callgsubr
          1 hlineto
          3 233 callgsubr
          65 -15 43 -44 19 vhcurveto
          85 vlineto
          endchar
        </CharString>
        <CharString name="dvCH_R_YA">
          641 896 118 callgsubr
          -77 -22 24 44 hvcurveto
          1 270 callsubr
          30 265 callsubr
          -216 66 459 hlineto
          -735 -387 rmoveto
          -56 callsubr
          -155 vlineto
          -48 -16 298 callsubr
          939 497 rmoveto
          -1135 -99 93 hlineto
          133 callgsubr
          4 233 callgsubr
          14 -1 13 -1 12 vhcurveto
          163 hlineto
          36 8 -13 -28 hvcurveto
          -13 vlineto
          -31 -12 -9 -40 vhcurveto
          -66 -79 -22 callgsubr
        </CharString>
        <CharString name="dvCH_YA">
          636 885 233 callsubr
          22 265 callsubr
          -226 hlineto
          8 -22 -26 4 -29 hhcurveto
          285 callgsubr
          -162 161 callgsubr
          659 281 callsubr
          -1124 134 callsubr
          188 vlineto
          9 -1 9 -1 8 vhcurveto
          148 hlineto
          36 8 -14 -27 hvcurveto
          -4 vlineto
          -31 -12 -10 -40 vhcurveto
          -66 -81 -22 callgsubr
        </CharString>
        <CharString name="dvC_CA">
          312 765 -10 callgsubr
          -800 -99 596 -397 hlineto
          351 callsubr
          -22 17 38 hvcurveto
          107 343 callsubr
          69 101 -226 -101 35 hlineto
          0 -7 -27 -38 vvcurveto
          -110 vlineto
          -17 1 -15 3 -14 vhcurveto
          -4 -18 -20 -2 -21 hhcurveto
          -45 -30 15 40 hvcurveto
          107 vlineto
          46 10 -22 callsubr
          41 101 -230 -106 67 280 callgsubr
          71 -51 112 58 44 11 10 26 vhcurveto
          -14 25 33 -7 42 hhcurveto
          28 28 3 6 21 hvcurveto
          -65 131 callsubr
        </CharString>
        <CharString name="dvC_CHA">
          414 673 179 rmoveto
          -48 -16 298 callsubr
          11 vlineto
          -56 callsubr
          195 232 rmoveto
          99 -903 -99 385 vlineto
          251 callgsubr
          -20 vlineto
          -4 -20 -23 -4 -25 65 callgsubr
          44 34 6 7 25 vhcurveto
          -45 32 65 -20 108 hhcurveto
          170 55 51 118 hvcurveto
          217 callgsubr
          vlineto
          endchar
        </CharString>
        <CharString name="dvC_CH_VA">
          415 622 -130 rmoveto
          -5 -21 -20 -3 -30 hhcurveto
          -52 -18 18 37 hvcurveto
          30 vlineto
          37 18 20 52 vhcurveto
          0 12 vlineto
          21 20 1 1 18 hvcurveto
          -169 173 rmoveto
          -56 callsubr
          -155 326 callsubr
          -95 -15 12 46 vhcurveto
          415 398 rmoveto
          99 -903 -99 385 vlineto
          201 callsubr
          31 -17 vhcurveto
          -33 -17 -15 -33 -42 vvcurveto
          -20 vlineto
          -4 -20 -23 -4 -25 65 callgsubr
          44 34 6 7 25 vhcurveto
          12 -16 16 -14 21 -10 rrcurveto
          -23 -17 -16 -25 -40 vvcurveto
          -34 vlineto
          -105 65 -44 109 32 25 3 5 22 vhcurveto
          -46 119 319 vlineto
          34 28 14 42 58 vvcurveto
          181 vlineto
          65 -16 43 -43 19 vhcurveto
          85 vlineto
          endchar
        </CharString>
        <CharString name="dvC_MA">
          483 735 173 callgsubr
          405 324 rmoveto
          -972 -99 567 212 callsubr
          245 callgsubr
          -99 vlineto
          -12 1 -12 2 -10 vhcurveto
          -4 -17 -20 -2 -20 65 callgsubr
          59 43 12 10 26 vhcurveto
          -14 25 33 -7 42 96 callsubr
        </CharString>
        <CharString name="dvC_NA">
          467 526 207 -104 callsubr
          394 350 rmoveto
          -958 -99 754 289 callgsubr
          -13 2 -13 vhcurveto
          -3 -18 -21 -3 -22 hhcurveto
          -45 -30 206 callgsubr
          70 -51 111 58 43 11 11 27 vhcurveto
          -15 24 33 -8 43 142 callgsubr
          -36 callgsubr
        </CharString>
        <CharString name="dvC_R">
          318 callgsubr
          -129 -244 rmoveto
          46 11 325 callgsubr
          -259 -106 68 169 callsubr
          -87 vlineto
          -94 43 -51 92 -9 vhcurveto
          -161 -142 rlineto
          147 hlineto
          144 135 rlineto
          119 vlineto
          -5 -17 -23 -5 -34 hhcurveto
          -47 -26 17 39 hvcurveto
          endchar
        </CharString>
        <CharString name="dvC_RA">
          65 -35 -10 callgsubr
          -99 350 -350 vlineto
          -6 -17 -18 -3 -22 hhcurveto
          -42 -22 17 39 hvcurveto
          59 343 callsubr
          68 101 -250 -106 60 169 callsubr
          -53 vlineto
          -82 30 -49 66 -17 vhcurveto
          -122 -142 329 callgsubr
          123 142 3 1 rlineto
          -122 -31 callgsubr
        </CharString>
        <CharString name="dvC_YA">
          399 648 -102 callgsubr
          204 99 rmoveto
          -887 -99 481 hlineto
          -46 callsubr
          -34 7 -29 13 -24 vhcurveto
          -8 -27 -29 -6 -30 hhcurveto
          -46 -31 16 39 hvcurveto
          102 vlineto
          264 callsubr
          -258 -106 67 169 callsubr
          -106 vlineto
          -104 73 -52 120 84 51 25 23 35 vhcurveto
          -15 34 41 -7 46 -30 callsubr
        </CharString>
        <CharString name="dvCandrabindu">
          -418 -171 949 rmoveto
          -35 13 -26 49 48 13 26 35 35 -13 27 -48 -49 -13 -27 -35 vhcurveto
          140 -63 36 callgsubr
        </CharString>
        <CharString name="dvD">
          4 504 34 callgsubr
          -347 437 rmoveto
          -76 callsubr
          163 348 callsubr
          hlineto
          -116 204 callsubr
          endchar
        </CharString>
        <CharString name="dvDA">
          4 34 214 rmoveto
          -76 callsubr
          163 348 callsubr
          hlineto
          -116 204 callsubr
          endchar
        </CharString>
        <CharString name="dvDA_mvR">
          4 368 390 rmoveto
          348 callsubr
          vlineto
          -116 204 callsubr
          -95 vlineto
          -97 50 -52 109 22 28 3 5 20 vhcurveto
          -47 vlineto
          -104 -4 -50 -54 -101 vvcurveto
          -105 67 -53 112 33 26 2 6 4 callgsubr
          -5 -31 -25 -3 -33 hhcurveto
          -39 -28 7 42 43 28 7 39 28 20 -3 -5 39 hvcurveto
          335 -118 -67 vlineto
          -2 -7 -20 -6 -26 hhcurveto
          -44 -12 19 30 hvcurveto
          87 286 callgsubr
        </CharString>
        <CharString name="dvDD">
          7 403 34 callgsubr
          115 385 -40 callsubr
        </CharString>
        <CharString name="dvDDA">
          6 395 162 -40 callsubr
        </CharString>
        <CharString name="dvDDH">
          9 403 34 callgsubr
          -73 723 rmoveto
          293 callgsubr
          -105 55 -57 123 123 52 53 105 vhcurveto
          -53 callgsubr
          160 173 95 99 -497 -99 286 -66 hlineto
          endchar
        </CharString>
        <CharString name="dvDDHA">
          9 207 500 rmoveto
          293 callgsubr
          -105 55 -57 123 123 52 53 105 vhcurveto
          -53 callgsubr
          160 173 95 99 -497 -99 286 -66 hlineto
          endchar
        </CharString>
        <CharString name="dvDDH_DDHA">
          37 374 400 rmoveto
          166 117 99 -526 -99 292 -66 -42 vlineto
          -119 -50 -43 -98 hvcurveto
          -157 vlineto
          -46 13 -35 25 -26 vhcurveto
          -27 -23 -13 -35 -46 vvcurveto
          -138 vlineto
          -102 63 -52 357 callgsubr
          89 284 callgsubr
          -9 -34 vhcurveto
          -4 vlineto
          -32 -11 -23 -58 -59 -11 25 32 vhcurveto
          131 vlineto
          43 13 18 50 vhcurveto
          9 hlineto
          123 60 49 101 hvcurveto
          14 vlineto
          89 -54 39 -86 -30 -23 -8 0 vhcurveto
          -89 vlineto
          0 12 8 22 28 17 -9 -34 vhcurveto
          -4 vlineto
          -32 -11 -23 -58 -58 -11 24 32 vhcurveto
          150 vlineto
          32 11 13 41 vhcurveto
          endchar
        </CharString>
        <CharString name="dvDDH_R">
          9 177 -159 166 callgsubr
          -319 824 rmoveto
          278 callsubr
          -49 51 -25 vhcurveto
          -64 -131 213 callgsubr
          47 111 rlineto
          0 4 vlineto
          47 -111 213 callgsubr
          -64 132 rlineto
          46 25 21 46 66 vvcurveto
          -53 callgsubr
          160 173 95 99 hlineto
          endchar
        </CharString>
        <CharString name="dvDDH_RA">
          9 367 393 rmoveto
          173 95 99 -497 278 callsubr
          -48 49 -25 vhcurveto
          -62 -128 213 callgsubr
          45 107 rlineto
          2 hlineto
          6 hlineto
          45 -107 213 callgsubr
          -63 129 rlineto
          46 25 20 45 66 vvcurveto
          -53 callgsubr
          endchar
        </CharString>
        <CharString name="dvDDH_YA">
          526 775 136 callsubr
          28 265 callsubr
          -165 66 408 281 callsubr
          -1014 -99 286 -66 -44 hlineto
          293 callgsubr
          -105 55 -57 123 123 52 53 105 vhcurveto
          -53 callgsubr
          328 hlineto
          36 9 -13 -28 hvcurveto
          -10 vlineto
          -31 -12 -10 -41 vhcurveto
          -65 -81 -22 callgsubr
        </CharString>
        <CharString name="dvDDHxA">
          9 207 500 rmoveto
          293 callgsubr
          -105 55 -57 123 123 52 53 105 vhcurveto
          24 vlineto
          105 -49 39 -90 -29 -19 -8 0 vhcurveto
          -105 vlineto
          0 12 8 20 25 17 -9 -34 vhcurveto
          -14 vlineto
          -35 -11 -21 -51 -51 -10 23 35 vhcurveto
          186 191 callgsubr
          43 vhcurveto
          160 173 95 99 -497 -99 286 -66 hlineto
          -96 -626 rmoveto
          -26 callgsubr
          -15 29 -50 246 callgsubr
          endchar
        </CharString>
        <CharString name="dvDD_DDA">
          27 252 callgsubr
          -41 -80 hvcurveto
          -10 vlineto
          -102 64 -21 106 vhcurveto
          25 hlineto
          39 12 -12 -24 292 callgsubr
          13 -3 16 -3 16 -3 rrcurveto
          -8 -17 -3 -18 -19 vvcurveto
          -102 77 -21 83 vhcurveto
          20 hlineto
          39 11 -13 -25 1 hvcurveto
          -8 vlineto
          -32 -23 -10 -61 -52 -70 10 9 -43 vhcurveto
          -98 vlineto
          -11 47 60 -8 58 hhcurveto
          140 66 41 95 hvcurveto
          216 callsubr
          -34 -11 9 25 26 12 11 33 hvcurveto
          0 vlineto
          133 2 62 41 93 vvcurveto
          216 callsubr
          -32 -11 9 24 -1 hvcurveto
          4 vlineto
          25 12 9 32 vhcurveto
          endchar
        </CharString>
        <CharString name="dvDD_DDHA">
          26 252 callgsubr
          -40 -88 hvcurveto
          -6 vlineto
          -98 66 -22 104 vhcurveto
          25 hlineto
          39 12 -13 -23 292 callgsubr
          11 -3 13 -2 13 -3 rrcurveto
          -17 -25 -9 -32 -37 vvcurveto
          -115 vlineto
          -101 63 -53 357 callgsubr
          90 284 callgsubr
          -11 -30 vhcurveto
          -6 vlineto
          -32 -11 -23 -58 -59 -11 24 32 vhcurveto
          132 vlineto
          39 10 19 37 3 vhcurveto
          2 hlineto
          138 67 39 97 hvcurveto
          216 callsubr
          -33 -11 9 25 26 12 11 32 hvcurveto
          endchar
        </CharString>
        <CharString name="dvDD_R">
          3 164 -159 166 callgsubr
          -312 824 rmoveto
          -99 282 87 callsubr
          -53 -49 8 9 -39 232 callsubr
          18 -4 17 -3 18 -3 -57 -117 rcurveline
          121 hlineto
          46 110 6 1 46 -111 213 callgsubr
          -65 135 rlineto
          48 25 23 43 64 vvcurveto
          15 vlineto
          52 callgsubr
          hlineto
          endchar
        </CharString>
        <CharString name="dvDD_RA">
          7 365 402 rmoveto
          164 94 99 -494 -99 282 87 callsubr
          -53 -49 8 9 -39 232 callsubr
          16 -4 16 181 callgsubr
          -12 callgsubr
          endchar
        </CharString>
        <CharString name="dvDD_VA">
          34 274 -66 rmoveto
          -5 -12 -19 -4 -22 hhcurveto
          -42 -11 17 30 hvcurveto
          30 vlineto
          45 11 13 54 vhcurveto
          0 vlineto
          14 1 14 1 13 1 rrcurveto
          115 348 rmoveto
          155 97 99 -521 -99 301 -66 -42 vlineto
          -118 -55 -41 -80 hvcurveto
          -10 vlineto
          -102 64 -21 106 vhcurveto
          25 hlineto
          40 11 -13 -25 hvcurveto
          -7 vlineto
          -37 -31 -6 -53 -52 -84 9 10 -44 vhcurveto
          -98 vlineto
          12 -3 13 -2 14 -2 rrcurveto
          -11 -17 -6 -20 -25 vvcurveto
          -36 vlineto
          -96 45 -43 106 27 23 4 6 17 vhcurveto
          -56 111 315 vlineto
          24 22 11 30 40 vvcurveto
          216 callsubr
          -33 -11 9 23 hvcurveto
          3 vlineto
          25 11 11 33 vhcurveto
          endchar
        </CharString>
        <CharString name="dvDD_YA">
          521 770 136 callsubr
          38 vlineto
          96 -50 35 -113 vhcurveto
          -162 62 405 281 callsubr
          -1009 5 callsubr
          -12 callgsubr
          328 hlineto
          36 9 -13 -27 hvcurveto
          -20 vlineto
          -31 -12 -10 -41 vhcurveto
          -65 -81 -22 callgsubr
        </CharString>
        <CharString name="dvDDxA">
          7 155 -126 rmoveto
          -37 14 279 callsubr
          -51 -14 -28 -37 vhcurveto
          240 288 -40 callsubr
        </CharString>
        <CharString name="dvDH">
          -132 352 177 rmoveto
          -8 -27 -45 -4 -31 hhcurveto
          -53 -35 15 48 hvcurveto
          35 -28 callgsubr
          -53 vlineto
          -94 68 -61 124 40 45 5 7 32 vhcurveto
          endchar
        </CharString>
        <CharString name="dvDHA">
          83 60 566 rmoveto
          132 callsubr
          -205 -9 callgsubr
          -285 -99 hlineto
          endchar
        </CharString>
        <CharString name="dvDH_MA">
          508 759 78 callgsubr
          -225 324 rmoveto
          -99 225 -125 -49 vlineto
          -115 187 callgsubr
          -99 vlineto
          -8 0 -8 1 -7 vhcurveto
          -7 -28 -31 -5 -34 hhcurveto
          -60 -32 15 49 hvcurveto
          34 -28 callgsubr
          -52 vlineto
          -94 65 -62 139 64 47 15 11 37 vhcurveto
          -18 26 37 -10 49 hhcurveto
          116 47 55 88 hvcurveto
          141 89 101 callsubr
          99 vlineto
          endchar
        </CharString>
        <CharString name="dvDH_NA">
          485 544 207 rmoveto
          -28 -8 -19 -37 -38 -89 callsubr
          38 vhcurveto
          37 hlineto
          3 -8 5 -25 -31 vvcurveto
          -234 350 rmoveto
          -99 424 -78 -235 vlineto
          -113 -46 -55 -96 hvcurveto
          -131 vlineto
          -11 1 -10 1 -10 vhcurveto
          -6 -28 -29 -4 -32 hhcurveto
          -60 -32 15 48 hvcurveto
          35 -28 callgsubr
          -53 vlineto
          -94 65 -61 139 60 47 13 11 36 vhcurveto
          -18 25 36 -10 48 142 callgsubr
          242 callgsubr
          86 -379 244 callsubr
          hlineto
          endchar
        </CharString>
        <CharString name="dvDH_N_YA">
          813 1062 -102 callgsubr
          -513 333 callsubr
          124 -29 callsubr
          37 vhcurveto
          38 hlineto
          3 -8 5 -26 -30 vvcurveto
          717 352 rmoveto
          -936 -99 530 hlineto
          10 callgsubr
          -33 -9 -17 -24 -8 vhcurveto
          57 -23 -54 28 -77 hhcurveto
          -177 112 callgsubr
          -128 vlineto
          -10 1 -10 1 -10 vhcurveto
          -7 -29 -31 -4 -34 hhcurveto
          -60 -32 15 48 hvcurveto
          35 -28 callgsubr
          -53 vlineto
          -94 65 -61 139 62 48 13 11 37 vhcurveto
          -18 25 36 -10 48 142 callgsubr
          110 -9 callsubr
          -1 6 vhcurveto
          36 hlineto
          40 20 -15 208 callsubr
        </CharString>
        <CharString name="dvDH_R">
          -132 161 276 rmoveto
          28 10 20 60 callsubr
          32 92 callgsubr
          63 99 -275 124 callsubr
          -36 vlineto
          -46 12 -31 31 -18 vhcurveto
          -34 -16 -15 -33 -52 vvcurveto
          -39 153 callgsubr
        </CharString>
        <CharString name="dvDH_RA">
          86 336 -10 callgsubr
          -469 vlineto
          262 callgsubr
          21 vlineto
          28 10 19 60 callsubr
          39 92 callgsubr
          74 99 -289 -99 94 170 callgsubr
          -43 vlineto
          -45 12 -32 31 -18 vhcurveto
          135 callgsubr
        </CharString>
        <CharString name="dvDH_VA">
          329 584 166 rmoveto
          -4 -11 -22 -4 -26 hhcurveto
          -44 -21 -27 callsubr
          -253 267 -49 callsubr
          -259 -99 91 hlineto
          0 -7 -19 -35 vvcurveto
          -44 vlineto
          -46 12 -32 31 -18 vhcurveto
          37 callsubr
        </CharString>
        <CharString name="dvDH_YA">
          409 658 -102 callgsubr
          -327 99 -15 callgsubr
          -259 -99 91 hlineto
          0 -7 -19 -35 vvcurveto
          -44 vlineto
          -46 12 -32 31 -18 vhcurveto
          33 callgsubr
        </CharString>
        <CharString name="dvD_BA">
          39 292 24 rmoveto
          -116 91 rlineto
          4 9 11 2 15 hhcurveto
          19 40 1 10 22 hvcurveto
          -140 -76 rmoveto
          123 -99 rlineto
          -8 -11 -16 -5 -26 hhcurveto
          -62 -8 28 38 hvcurveto
          247 380 rmoveto
          176 93 99 -527 320 callsubr
          -97 vlineto
          -45 13 -31 25 -21 vhcurveto
          -24 -19 -16 -31 -48 vvcurveto
          -54 vlineto
          -101 49 -54 133 133 52 58 101 1 vhcurveto
          305 -116 -95 vlineto
          -4 -17 -25 -4 -24 hhcurveto
          -52 -14 22 32 hvcurveto
          74 vlineto
          33 13 21 52 vhcurveto
          endchar
        </CharString>
        <CharString name="dvD_BHA">
          145 158 -116 rmoveto
          -10 15 -3 14 22 17 28 20 rcurveline
          24 -34 9 -14 4 -14 -23 -16 rlinecurve
          -23 -17 -13 8 -10 14 rrcurveto
          345 513 179 callgsubr
          -633 -99 425 177 callsubr
          -114 vlineto
          -76 31 -48 65 -18 vhcurveto
          -49 -35 -34 47 -39 55 -52 11 -65 -48 rlinecurve
          -63 -45 -8 -54 39 -54 15 -22 rcurveline
          69 50 -15 20 -10 14 -3 12 22 17 rlinecurve
          22 15 10 -8 11 -13 33 -46 rcurveline
          -28 -20 -65 -47 -6 -53 36 -49 rlinecurve
          9 -12 36 -50 51 -13 66 48 rlinecurve
          65 46 5 53 -36 50 -25 36 rcurveline
          131 93 9 2 rlineto
          -78 118 273 -118 -90 vlineto
          262 callsubr
          106 221 callgsubr
          45 vhcurveto
          endchar
        </CharString>
        <CharString name="dvD_B_RA">
          34 293 70 rmoveto
          -115 83 rlineto
          3 9 10 2 14 hhcurveto
          20 39 2 10 23 hvcurveto
          -141 -74 rmoveto
          122 -89 rlineto
          -8 -11 -16 -4 -25 hhcurveto
          -62 -8 27 38 hvcurveto
          247 330 rmoveto
          176 89 99 -523 320 callsubr
          -60 vlineto
          -45 13 -32 25 -20 vhcurveto
          -24 -19 -15 -31 -48 vvcurveto
          -40 vlineto
          -83 32 -43 76 -14 vhcurveto
          -99 -114 rlineto
          133 hlineto
          106 122 4 2 rlineto
          -76 115 466 -115 -56 vlineto
          -6 -16 -23 -6 -28 hhcurveto
          -52 -14 22 32 hvcurveto
          37 vlineto
          33 13 21 52 vhcurveto
          endchar
        </CharString>
        <CharString name="dvD_DA">
          8 374 416 rmoveto
          150 87 99 -496 -99 290 -58 -59 vlineto
          -109 -47 -40 -94 hvcurveto
          -11 vlineto
          -45 14 -29 26 -17 vhcurveto
          -26 -18 -14 -29 -45 vvcurveto
          -51 vlineto
          -89 49 -50 109 35 27 5 2 7 vhcurveto
          -64 117 228 -117 -67 vlineto
          -2 -6 -21 -5 -26 hhcurveto
          -44 -12 17 29 hvcurveto
          43 102 callsubr
          107 99 -107 hlineto
          -44 -9 17 28 hvcurveto
          5 vlineto
          28 9 17 44 vhcurveto
          endchar
        </CharString>
        <CharString name="dvD_DHA">
          183 554 390 rmoveto
          176 83 99 -672 -99 471 -69 -45 vlineto
          -116 204 callsubr
          -134 vlineto
          276 callsubr
          9 vlineto
          234 callgsubr
          18 92 -18 51 callgsubr
        </CharString>
        <CharString name="dvD_GA">
          20 379 390 rmoveto
          176 95 99 -509 -99 296 177 callsubr
          -125 vlineto
          -59 19 -43 39 -24 vhcurveto
          -53 359 callgsubr
          -101 vlineto
          0 18 -3 22 106 34 39 104 vhcurveto
          40 vlineto
          20 1 23 4 16 5 rrcurveto
          -244 118 440 -118 -96 vlineto
          -1 -7 -18 -5 -28 hhcurveto
          -44 -12 19 30 hvcurveto
          117 221 callgsubr
          45 vhcurveto
          endchar
        </CharString>
        <CharString name="dvD_GHA">
          187 122 61 rmoveto
          234 callgsubr
          53 -72 hlineto
          276 callsubr
          432 338 rmoveto
          176 87 99 -676 -99 471 -69 -45 vlineto
          -105 -55 -33 -86 -9 hvcurveto
          -55 51 callgsubr
        </CharString>
        <CharString name="dvD_G_RA">
          12 375 390 179 callgsubr
          -500 -99 292 177 callsubr
          -78 vlineto
          -55 16 -40 33 -25 vhcurveto
          -43 359 callgsubr
          -100 vlineto
          0 15 -4 25 106 34 39 104 vhcurveto
          24 vlineto
          21 26 3 8 21 hvcurveto
          -103 vlineto
          -212 -250 283 callsubr
          14 17 44 50 29 37 13 30 rlinecurve
          2 hlineto
          -4 -14 0 -22 -21 vvcurveto
          -37 109 488 -118 -75 vlineto
          -2 -7 -19 -4 -27 hhcurveto
          -44 -12 18 30 hvcurveto
          70 vlineto
          29 10 17 44 vhcurveto
          endchar
        </CharString>
        <CharString name="dvD_MA">
          252 504 98 rmoveto
          -115 203 -112 -70 hlineto
          -1 -4 -22 -10 -36 hhcurveto
          -52 -11 22 29 hvcurveto
          69 vlineto
          29 9 21 52 vhcurveto
          170 176 121 hlineto
          202 99 rmoveto
          -741 -99 300 -69 -52 hlineto
          -124 -55 -43 -110 hvcurveto
          -73 vlineto
          -97 53 -57 113 22 40 4 9 15 vhcurveto
          -192 111 59 116 -133 115 702 87 vlineto
          endchar
        </CharString>
        <CharString name="dvD_NA">
          5 368 390 rmoveto
          348 callsubr
          vlineto
          -116 204 callsubr
          -122 vlineto
          -74 29 -39 62 -14 vhcurveto
          -41 -32 -80 -64 -8 -69 46 -49 rlinecurve
          30 -33 43 -1 0 vvcurveto
          73 66 rlineto
          0 -28 5 -15 16 vhcurveto
          -18 20 -3 24 33 28 104 87 rcurveline
          -99 118 275 -118 -85 vlineto
          -4 -15 -14 -3 -22 hhcurveto
          -44 -14 19 30 hvcurveto
          114 286 callgsubr
        </CharString>
        <CharString name="dvD_R">
          10 384 -2 rmoveto
          269 -117 -58 vlineto
          -21 -7 -10 -11 -36 hhcurveto
          -44 -12 19 30 hvcurveto
          118 102 callsubr
          163 176 90 99 -500 -99 291 -69 -44 hlineto
          -116 204 callsubr
          -126 vlineto
          -74 29 -39 62 -14 vhcurveto
          -103 -160 rlineto
          129 hlineto
          107 165 3 2 rlineto
          -104 vlineto
          123 -61 rmoveto
          -107 hlineto
          299 callgsubr
          endchar
        </CharString>
        <CharString name="dvD_RA">
          10 374 390 179 callgsubr
          -499 -99 291 177 callsubr
          -120 17 callgsubr
        </CharString>
        <CharString name="dvD_VA">
          11 268 192 callsubr
          106 264 rmoveto
          176 91 99 -500 -99 291 177 callsubr
          93 callsubr
        </CharString>
        <CharString name="dvD_YA">
          80 533 -10 callgsubr
          -568 -99 162 -60 hlineto
          -55 -7 -35 -25 -74 vvcurveto
          -21 vlineto
          -40 14 -32 33 -19 vhcurveto
          -31 -21 -13 -34 -41 vvcurveto
          -19 vlineto
          -94 52 -56 131 44 42 6 7 28 vhcurveto
          -36 110 566 86 vlineto
          -204 hmoveto
          -426 vlineto
          -7 -21 -36 -4 -30 hhcurveto
          -61 -23 10 49 hvcurveto
          6 vlineto
          28 13 22 43 vhcurveto
          33 94 -41 220 callgsubr
          10 vlineto
          31 12 14 38 vhcurveto
          40 126 hlineto
          endchar
        </CharString>
        <CharString name="dvE">
          19 372 122 rmoveto
          -10 -34 -38 -8 -51 hhcurveto
          -64 -18 24 45 hvcurveto
          393 161 callsubr
          -397 vlineto
          -117 59 -57 137 56 43 10 10 28 vhcurveto
          endchar
        </CharString>
        <CharString name="dvEcandra">
          19 371 122 rmoveto
          -10 -35 -38 -8 -50 hhcurveto
          -62 -19 24 43 hvcurveto
          395 161 callsubr
          -399 vlineto
          334 callgsubr
          -70 870 36 callgsubr
        </CharString>
        <CharString name="dvEight">
          0 callsubr
        </CharString>
        <CharString name="dvEyelash">
          -151 -35 566 rmoveto
          464 99 -464 hlineto
          464 -320 rmoveto
          -204 hlineto
          -56 -32 3 48 hvcurveto
          -118 -12 hlineto
          -106 78 -35 129 vhcurveto
          203 hlineto
          endchar
        </CharString>
        <CharString name="dvEyelash_HA">
          236 593 405 rmoveto
          367 callgsubr
          -724 -99 510 -59 -59 vlineto
          -108 -53 -36 -91 hvcurveto
          -2 -41 vlineto
          -57 -32 5 48 hvcurveto
          -118 -11 hlineto
          -107 79 -37 128 vhcurveto
          78 5 hlineto
          3 -2 3 -2 3 -2 111 callsubr
          -33 vlineto
          -96 58 -56 130 62 53 6 10 45 vhcurveto
          100 vlineto
          -9 -48 -39 -4 -65 hhcurveto
          -57 -21 19 37 hvcurveto
          30 vlineto
          28 10 19 43 vhcurveto
          43 hlineto
          37 7 -13 -31 hvcurveto
          -20 105 30 vlineto
          88 -37 44 -98 vhcurveto
          -66 hlineto
          -33 -11 11 23 hvcurveto
          10 287 callgsubr
          32 vhcurveto
          endchar
        </CharString>
        <CharString name="dvEyelash_YA">
          307 556 159 callsubr
          27 56 hvcurveto
          18 vlineto
          302 callsubr
          94 vlineto
          32 -6 22 0 vhcurveto
          86 hlineto
          -591 99 rmoveto
          -99 389 vlineto
          -32 callgsubr
          -71 vlineto
          -53 -23 -13 -72 vhcurveto
          -50 hlineto
          -56 -33 5 48 hvcurveto
          -117 -12 hlineto
          -106 78 -38 128 vhcurveto
          27 -19 hlineto
          -122 93 -45 -59 callsubr
          99 vlineto
          endchar
        </CharString>
        <CharString name="dvFive">
          56 callgsubr
        </CharString>
        <CharString name="dvFour">
          135 callsubr
        </CharString>
        <CharString name="dvG">
          -161 222 566 rmoveto
          71 99 -328 -99 -96 callgsubr
          endchar
        </CharString>
        <CharString name="dvGA">
          72 524 -10 callgsubr
          -559 -99 -96 callgsubr
          236 99 232 callgsubr
        </CharString>
        <CharString name="dvGH">
          -136 345 177 rmoveto
          -8 -25 -42 -4 -31 hhcurveto
          -54 -2 callgsubr
          155 99 -367 99 callsubr
          124 40 43 5 7 30 vhcurveto
          endchar
        </CharString>
        <CharString name="dvGHA">
          83 536 -10 callgsubr
          -571 99 callsubr
          124 40 31 4 7 29 303 callgsubr
          85 vlineto
          -204 hmoveto
          -390 vlineto
          -8 -24 -30 -3 -31 hhcurveto
          -54 -2 callgsubr
          endchar
        </CharString>
        <CharString name="dvGH_MA">
          503 755 100 callsubr
          245 callgsubr
          -99 vlineto
          -9 0 -8 1 -8 vhcurveto
          -6 -27 -29 -4 -31 hhcurveto
          -61 -2 callgsubr
          375 230 callsubr
          405 324 rmoveto
          -992 99 callsubr
          139 62 48 13 11 36 vhcurveto
          -17 26 36 -9 48 96 callsubr
        </CharString>
        <CharString name="dvGH_NA">
          485 735 488 rmoveto
          336 callsubr
          -11 1 -10 1 -10 vhcurveto
          -6 -28 -30 -4 -31 hhcurveto
          -61 -2 callgsubr
          558 hlineto
          -190 -85 callgsubr
          394 350 rmoveto
          -974 99 callsubr
          139 60 48 13 11 36 vhcurveto
          -18 25 36 -10 47 142 callgsubr
          -36 callgsubr
        </CharString>
        <CharString name="dvGH_R">
          -135 161 275 rmoveto
          28 10 19 -34 callsubr
          1 -9 19 28 vvcurveto
          33 92 callgsubr
          159 99 -371 124 callsubr
          -37 48 callsubr
          -38 153 callgsubr
        </CharString>
        <CharString name="dvGH_RA">
          86 164 270 rmoveto
          28 10 19 60 callsubr
          39 92 callgsubr
          156 -370 hlineto
          262 callgsubr
          -199 416 rmoveto
          -99 94 vlineto
          143 callsubr
          -43 vlineto
          -45 12 -32 31 -18 vhcurveto
          185 callsubr
          -20 vlineto
          -80 46 -56 88 -15 vhcurveto
          -138 -153 rlineto
          148 hlineto
          145 159 rlineto
          1 -109 264 callgsubr
        </CharString>
        <CharString name="dvGH_YA">
          404 653 -102 callgsubr
          -492 -299 rmoveto
          28 10 19 60 callsubr
          42 92 callgsubr
          274 hlineto
          -46 callsubr
          -31 6 -26 11 -23 vhcurveto
          -9 -35 -37 -6 -31 hhcurveto
          -61 -32 15 50 hvcurveto
          696 429 rmoveto
          -892 124 callsubr
          -46 vlineto
          -45 12 -32 31 -18 vhcurveto
          185 callsubr
          -49 vlineto
          -95 65 -61 139 74 80 20 21 42 vhcurveto
          -14 34 40 -7 45 -30 callsubr
        </CharString>
        <CharString name="dvG_BA">
          302 412 310 -63 callsubr
          198 269 rmoveto
          -791 -99 -96 callgsubr
          236 336 152 callsubr
          vlineto
          endchar
        </CharString>
        <CharString name="dvG_BHA">
          476 222 566 rmoveto
          39 99 -296 -99 -96 callgsubr
          293 -127 -24 callsubr
          100 vmoveto
          -49 hlineto
          -116 -47 -54 -88 hvcurveto
          -81 122 callgsubr
          -205 -28 callsubr
          endchar
        </CharString>
        <CharString name="dvG_BH_YA">
          767 -35 566 rmoveto
          -96 callgsubr
          236 32 99 -289 vlineto
          1051 -461 rmoveto
          -5 -23 -28 -3 -33 hhcurveto
          -78 -17 callsubr
          172 339 183 callgsubr
          -43 -15 -16 -45 -5 vhcurveto
          22 -21 -35 10 -53 hhcurveto
          -36 54 callsubr
          245 callgsubr
          -84 310 callsubr
          33 vlineto
          39 20 -8 -30 hvcurveto
          -22 vlineto
          -122 93 200 callgsubr
          99 vlineto
          endchar
        </CharString>
        <CharString name="dvG_DA">
          277 640 390 179 callgsubr
          -765 -99 139 189 callgsubr
          300 -69 -45 vlineto
          -116 204 callsubr
          -134 vlineto
          -76 callsubr
          endchar
        </CharString>
        <CharString name="dvG_DHA">
          352 601 665 128 callsubr
          -554 -99 -96 callgsubr
          236 107 vlineto
          132 callsubr
          vlineto
          endchar
        </CharString>
        <CharString name="dvG_DH_VA">
          598 853 166 rmoveto
          -4 -11 -22 -4 -26 hhcurveto
          -44 -21 -27 callsubr
          -253 267 -49 callsubr
          -528 -99 -96 callgsubr
          236 103 vlineto
          143 callsubr
          -44 vlineto
          -46 12 -32 31 -18 vhcurveto
          37 callsubr
        </CharString>
        <CharString name="dvG_DH_YA">
          677 927 -102 callgsubr
          -327 99 -15 callgsubr
          -528 -99 -96 callgsubr
          236 103 vlineto
          143 callsubr
          -44 vlineto
          -46 12 -32 31 -18 vhcurveto
          33 callgsubr
        </CharString>
        <CharString name="dvG_GA">
          323 776 -10 callgsubr
          -811 -99 -96 callgsubr
          236 134 189 callgsubr
          99 232 callgsubr
        </CharString>
        <CharString name="dvG_GHA">
          352 601 176 rmoveto
          -8 -24 -30 -3 -31 hhcurveto
          -54 -2 callgsubr
          155 281 callsubr
          -840 -99 -96 callgsubr
          236 103 vlineto
          26 callgsubr
          124 40 31 4 7 29 303 callgsubr
          85 vlineto
          endchar
        </CharString>
        <CharString name="dvG_JA">
          406 859 -10 callgsubr
          -894 -99 -96 callgsubr
          236 434 -78 -321 -108 102 vlineto
          -101 callgsubr
          99 304 callgsubr
          85 hlineto
          endchar
        </CharString>
        <CharString name="dvG_LA">
          486 940 -10 callgsubr
          -975 -99 -96 callgsubr
          236 513 -84 vlineto
          2 -6 -21 5 -28 hhcurveto
          -57 -28 -22 -29 -20 hvcurveto
          24 -14 -34 28 -63 hhcurveto
          -107 -56 -57 -97 hvcurveto
          -55 callsubr
        </CharString>
        <CharString name="dvG_MA">
          448 699 173 callgsubr
          405 324 rmoveto
          -936 -99 -96 callgsubr
          236 198 callsubr
          90 -341 116 566 86 vlineto
          endchar
        </CharString>
        <CharString name="dvG_NA">
          445 504 207 -104 callsubr
          394 350 rmoveto
          -933 -99 -96 callgsubr
          236 472 -78 -236 vlineto
          -113 -45 -55 -96 hvcurveto
          -38 callgsubr
        </CharString>
        <CharString name="dvG_NNA">
          500 537 262 -20 callsubr
          417 99 rmoveto
          -989 -99 -96 callgsubr
          236 97 -305 208 callgsubr
        </CharString>
        <CharString name="dvG_N_YA">
          759 1009 78 callsubr
          -509 -85 callgsubr
          713 350 rmoveto
          -1248 -99 -96 callgsubr
          236 584 vlineto
          10 callgsubr
          -32 -8 93 callgsubr
          92 -58 130 36 33 4 5 22 55 callsubr
          86 vlineto
          endchar
        </CharString>
        <CharString name="dvG_R">
          72 callgsubr
          endchar
        </CharString>
        <CharString name="dvG_RA">
          71 524 665 50 callsubr
        </CharString>
        <CharString name="dvG_R_YA">
          370 622 204 rmoveto
          -5 -23 -28 -3 -34 1 callsubr
          329 callsubr
          -862 -99 139 -190 hlineto
          -33 -19 -18 -37 vhcurveto
          -14 -17 2 -1 hhcurveto
          -113 vlineto
          1 32 -3 16 hhcurveto
          97 60 52 104 hvcurveto
          199 198 vlineto
          177 callgsubr
          -72 vhcurveto
          -24 -81 hlineto
          -255 -312 329 callgsubr
          59 71 36 43 24 33 18 31 rlinecurve
          -62 35 74 -30 92 193 callsubr
        </CharString>
        <CharString name="dvG_SA">
          477 726 371 rmoveto
          -92 11 hlineto
          130 -73 callgsubr
          99 281 callsubr
          -965 -99 -96 callgsubr
          236 287 vlineto
          -106 callgsubr
          129 -269 -94 callgsubr
          hlineto
          endchar
        </CharString>
        <CharString name="dvG_VA">
          284 538 -95 callsubr
          199 267 rmoveto
          -772 -99 -96 callgsubr
          236 311 -69 vlineto
          238 callgsubr
          -146 vlineto
          -65 callgsubr
        </CharString>
        <CharString name="dvG_YA">
          370 619 -102 callgsubr
          204 99 rmoveto
          -858 -99 -96 callgsubr
          236 195 vlineto
          -46 callsubr
          -75 callsubr
        </CharString>
        <CharString name="dvGx">
          -161 222 566 rmoveto
          71 99 -328 -99 -96 callgsubr
          -171 -286 rmoveto
          -26 callgsubr
          -15 29 -50 246 callgsubr
          endchar
        </CharString>
        <CharString name="dvGxA">
          78 121 108 rmoveto
          -51 -14 123 callgsubr
          366 callsubr
          409 557 rmoveto
          -559 -99 -96 callgsubr
          236 99 232 callgsubr
        </CharString>
        <CharString name="dvGx_R">
          72 callgsubr
          49 -418 rmoveto
          -26 callgsubr
          -15 29 -50 246 callgsubr
          endchar
        </CharString>
        <CharString name="dvGx_RA">
          71 262 -30 rmoveto
          -51 -14 123 callgsubr
          366 callsubr
          262 695 50 callsubr
        </CharString>
        <CharString name="dvH">
          5 499 327 rmoveto
          -296 hlineto
          89 callsubr
          120 99 -534 -64 callgsubr
          287 hlineto
          endchar
        </CharString>
        <CharString name="dvHA">
          22 41 150 rmoveto
          -102 76 -55 130 58 49 9 11 35 vhcurveto
          -31 callsubr
          176 367 callgsubr
          -510 197 callsubr
          endchar
        </CharString>
        <CharString name="dvHA_mU">
          22 264 -7 rmoveto
          38 13 -11 -36 -36 -13 -11 -40 hvcurveto
          -64 hlineto
          -39 -14 7 43 -36 hvcurveto
          -20 22 rlineto
          -133 hlineto
          68 -82 rlineto
          -68 56 45 -23 59 hhcurveto
          97 hlineto
          100 45 41 108 111 -47 38 -97 hvcurveto
          -45 hlineto
          -57 -21 19 37 hvcurveto
          30 6 callsubr
          176 367 callgsubr
          -510 197 callsubr
          -33 vlineto
          -97 59 -56 137 1 vhcurveto
          endchar
        </CharString>
        <CharString name="dvHA_mUU">
          16 419 12 rmoveto
          68 -55 -44 16 -66 hhcurveto
          -22 hlineto
          -57 -21 19 37 hvcurveto
          30 vlineto
          28 10 19 43 vhcurveto
          43 hlineto
          37 7 -13 -31 hvcurveto
          -20 105 30 vlineto
          88 -37 44 -99 vhcurveto
          -65 hlineto
          -33 -11 11 23 hvcurveto
          10 287 callgsubr
          32 vhcurveto
          177 367 callgsubr
          -505 -99 291 -59 -59 hlineto
          -109 -52 326 callgsubr
          -45 17 -27 29 -16 vhcurveto
          -30 -19 -16 -30 -48 vvcurveto
          -33 vlineto
          -59 21 -35 43 -18 vhcurveto
          -19 -18 -9 -27 -35 vvcurveto
          -96 45 -36 89 26 57 4 0 vhcurveto
          93 vlineto
          0 -53 -4 -19 -26 -13 11 28 29 10 11 28 vhcurveto
          25 hlineto
          46 13 1 -44 36 hvcurveto
          97 -121 rlineto
          131 hlineto
          endchar
        </CharString>
        <CharString name="dvHA_mvR">
          102 152 200 rmoveto
          25 11 14 35 vhcurveto
          146 hlineto
          25 9 -4 -23 -22 -9 -5 -25 hvcurveto
          -2 hlineto
          -82 -59 -26 -99 -113 81 -16 94 52 46 7 7 26 hvcurveto
          94 vlineto
          -6 -31 -36 -5 -42 hhcurveto
          -63 -18 5 27 21 11 6 21 hvcurveto
          8 hlineto
          93 45 39 86 86 -45 36 -93 hvcurveto
          -150 hlineto
          -32 -12 11 23 hvcurveto
          3 287 callgsubr
          32 vhcurveto
          237 161 120 99 -591 -99 352 -59 -114 hlineto
          -109 -52 -36 -91 hvcurveto
          -14 vlineto
          -45 19 -24 23 -12 vhcurveto
          -23 -12 -19 -21 -48 vvcurveto
          -252 vlineto
          -113 83 -59 130 59 48 8 11 36 vhcurveto
          93 vlineto
          -12 -41 -36 -7 -58 hhcurveto
          -63 -48 22 61 hvcurveto
          endchar
        </CharString>
        <CharString name="dvH_LA">
          630 879 482 rmoveto
          2 callgsubr
          -9 -242 vlineto
          89 callsubr
          500 hlineto
          329 callsubr
          -1119 -64 callgsubr
          233 -55 60 callgsubr
        </CharString>
        <CharString name="dvH_MA">
          268 520 194 rmoveto
          -110 9 hlineto
          80 -44 40 -99 vhcurveto
          -61 hlineto
          -32 -12 11 30 hvcurveto
          2 vlineto
          31 11 12 33 vhcurveto
          201 157 113 hlineto
          202 99 rmoveto
          -757 -99 324 -59 -83 hlineto
          -109 -53 -32 -99 hvcurveto
          -9 vlineto
          -53 17 -25 29 -16 vhcurveto
          -30 -14 -16 -25 -48 vvcurveto
          -81 311 callgsubr
          93 vlineto
          27 14 12 35 vhcurveto
          42 hlineto
          37 8 -12 -27 hvcurveto
          -158 112 62 110 -133 116 605 86 vlineto
          endchar
        </CharString>
        <CharString name="dvH_NA">
          611 861 488 rmoveto
          141 callgsubr
          -10 -264 vlineto
          89 callsubr
          482 hlineto
          -190 -85 callgsubr
          394 350 rmoveto
          -1100 -64 callgsubr
          255 -23 23 callsubr
        </CharString>
        <CharString name="dvH_NNA">
          676 713 262 -20 callsubr
          -510 -239 rmoveto
          89 callsubr
          116 -239 hlineto
          635 338 rmoveto
          -1165 -64 callgsubr
          285 hlineto
          -77 11 53 -44 102 hhcurveto
          117 51 57 96 hvcurveto
          305 95 194 callgsubr
        </CharString>
        <CharString name="dvH_RA">
          96 420 413 rmoveto
          153 130 99 -585 -99 337 -56 -99 vlineto
          -109 -53 -31 -91 hvcurveto
          -9 vlineto
          1 -45 16 -30 29 -16 rrcurveto
          -30 -19 -16 -25 -47 vvcurveto
          -54 vlineto
          -105 58 -63 172 77 87 11 11 37 vhcurveto
          101 vlineto
          -10 -48 -65 -10 -80 hhcurveto
          -99 -21 26 46 hvcurveto
          51 vlineto
          28 11 18 42 vhcurveto
          64 hlineto
          -81 -109 100 -9 79 107 rlineto
          6 -7 2 -10 -15 vvcurveto
          -36 105 46 vlineto
          87 -37 35 -98 vhcurveto
          -149 hlineto
          -32 -12 11 24 hvcurveto
          8 287 callgsubr
          33 vhcurveto
          endchar
        </CharString>
        <CharString name="dvH_VA">
          429 683 -95 callsubr
          -480 -71 rmoveto
          89 callsubr
          299 -69 hlineto
          238 callgsubr
          -27 vlineto
          438 338 rmoveto
          -917 -64 callgsubr
          232 -21 hlineto
          -65 callgsubr
        </CharString>
        <CharString name="dvH_YA">
          269 518 145 rmoveto
          -5 -15 -37 -5 -29 hhcurveto
          -22 hlineto
          9 14 5 19 27 vvcurveto
          7 vlineto
          80 -52 40 -113 vhcurveto
          -60 hlineto
          -33 -11 11 31 hvcurveto
          3 vlineto
          31 11 13 32 vhcurveto
          208 155 107 281 callsubr
          -757 -99 328 -57 -90 hlineto
          -109 -52 -36 -99 hvcurveto
          -3 vlineto
          -54 18 -29 28 -15 vhcurveto
          -30 -18 -16 -27 -47 vvcurveto
          -76 311 callgsubr
          88 vlineto
          28 10 18 43 vhcurveto
          45 hlineto
          51 9 -18 -30 hvcurveto
          -9 vlineto
          -34 -22 -5 -36 vhcurveto
          -105 167 vlineto
          36 39 5 5 16 hvcurveto
          -74 118 600 86 vlineto
          endchar
        </CharString>
        <CharString name="dvI">
          -5 155 169 rmoveto
          -116 -246 116 88 hlineto
          -1 6 31 -7 35 hhcurveto
          119 42 52 97 hvcurveto
          30 vlineto
          97 -54 45 -116 vhcurveto
          -25 hlineto
          -34 -10 13 24 hvcurveto
          3 vlineto
          25 9 13 35 vhcurveto
          168 164 87 99 -483 -99 278 -62 -50 hlineto
          -109 -54 -39 -97 hvcurveto
          -9 vlineto
          -96 58 -39 105 vhcurveto
          25 hlineto
          42 10 -20 -26 hvcurveto
          -22 vlineto
          -31 -15 -16 -44 -25 -24 5 2 -7 vhcurveto
          endchar
        </CharString>
        <CharString name="dvII">
          -5 361 402 rmoveto
          164 87 99 -91 vlineto
          -14 27 -10 32 22 vvcurveto
          38 24 8 31 14 15 -2 -1 3 vhcurveto
          105 vlineto
          -3 -21 5 -47 hhcurveto
          -66 -69 -26 -102 -41 15 -37 13 -28 27 callsubr
          endchar
        </CharString>
        <CharString name="dvII_Anusvara">
          -3 420 940 rmoveto
          -3 -21 6 -37 hhcurveto
          -84 -71 -31 -109 -51 17 -55 21 -35 27 callsubr
          168 164 87 99 -91 hlineto
          -22 35 -12 49 32 vvcurveto
          45 28 20 39 vhcurveto
          11 16 -2 3 hhcurveto
          16 -38 97 callgsubr
        </CharString>
        <CharString name="dvJ">
          -60 417 -10 callgsubr
          -452 -99 452 hlineto
          -78 vmoveto
          -325 -108 102 hlineto
          -101 callgsubr
          103 hlineto
          endchar
        </CharString>
        <CharString name="dvJA">
          164 323 333 72 callsubr
        </CharString>
        <CharString name="dvJH">
          11 234 2 rmoveto
          166 callsubr
          116 93 -275 hlineto
          116 callsubr
          112 99 -522 -39 callsubr
          endchar
        </CharString>
        <CharString name="dvJHA">
          216 214 224 rmoveto
          40 callgsubr
          -6 22 -11 12 vhcurveto
          97 -231 271 callsubr
          -704 -99 290 -62 -50 hlineto
          186 callgsubr
          -9 344 callsubr
          -1 100 rmoveto
          -34 260 callgsubr
          169 164 91 -242 hlineto
          endchar
        </CharString>
        <CharString name="dvJH_MA">
          620 872 100 callsubr
          -105 -48 -43 -74 -9 hvcurveto
          -246 hlineto
          116 callsubr
          294 230 callsubr
          405 324 rmoveto
          -1109 -39 callsubr
          166 callsubr
          86 -31 hlineto
          1 callgsubr
        </CharString>
        <CharString name="dvJH_NA">
          618 867 488 rmoveto
          141 callgsubr
          -13 -261 vlineto
          116 callsubr
          492 hlineto
          -190 -85 callgsubr
          394 350 rmoveto
          -1106 -39 callsubr
          166 callsubr
          102 -25 23 callsubr
        </CharString>
        <CharString name="dvJH_R">
          84 215 324 rmoveto
          330 callgsubr
          239 164 105 99 -594 -99 371 -62 -121 hlineto
          252 callsubr
          -26 vlineto
          -30 -13 -18 -44 -18 -17 4 2 -7 vhcurveto
          55 -116 -240 116 83 vlineto
          -1 7 27 -6 28 hhcurveto
          98 57 37 105 hvcurveto
          32 vlineto
          22 -5 19 -12 15 vhcurveto
          182 hlineto
          -247 -314 rlineto
          133 hlineto
          67 85 34 43 23 36 11 31 rlinecurve
          212 vlineto
          endchar
        </CharString>
        <CharString name="dvJH_RA">
          292 376 175 rmoveto
          22 -5 19 -12 15 vhcurveto
          161 hlineto
          1 -26 -227 -288 rlineto
          133 hlineto
          67 85 34 43 17 30 11 31 rlinecurve
          2 hlineto
          -6 -43 0 -33 -20 vvcurveto
          -18 107 574 87 99 -781 -99 371 -62 -121 vlineto
          252 callsubr
          -23 vlineto
          -30 -13 -18 -44 -18 -17 4 2 -7 vhcurveto
          55 -116 -241 116 84 vlineto
          -2 7 27 -5 28 hhcurveto
          98 57 36 106 hvcurveto
          -161 256 rmoveto
          239 164 88 -242 -327 hlineto
          330 callgsubr
          endchar
        </CharString>
        <CharString name="dvJH_YA">
          521 771 -14 callgsubr
          -173 rmoveto
          -69 -246 vlineto
          116 callsubr
          194 hlineto
          -50 callgsubr
          494 272 rmoveto
          -1010 -39 callsubr
          166 callsubr
          90 hlineto
          -98 16 87 -47 116 -30 callsubr
        </CharString>
        <CharString name="dvJ_BA">
          421 531 310 -63 callsubr
          198 269 rmoveto
          -910 -99 712 225 callgsubr
          -42 -35 -5 -13 -28 hvcurveto
          -399 -108 102 hlineto
          -101 callgsubr
          108 hlineto
          -2 -12 -1 -12 -14 vvcurveto
          -134 82 callsubr
        </CharString>
        <CharString name="dvJ_DA">
          385 748 390 179 callgsubr
          -873 -99 665 -69 -45 vlineto
          -25 -23 -2 -4 -19 hvcurveto
          -426 167 callgsubr
          -116 -98 callsubr
          127 -14 callsubr
          103 hlineto
          -2 -13 -1 -14 -15 vvcurveto
          -134 vlineto
          -76 callsubr
          endchar
        </CharString>
        <CharString name="dvJ_DDA">
          364 721 402 rmoveto
          164 94 99 -850 -99 638 -62 -45 vlineto
          -39 -32 -5 -11 -25 hvcurveto
          -370 -108 102 hlineto
          -101 callgsubr
          83 hlineto
          -1 -6 0 -6 -7 vvcurveto
          -65 callsubr
          -12 callgsubr
          endchar
        </CharString>
        <CharString name="dvJ_JA">
          507 960 -10 callgsubr
          -995 -99 791 -78 -664 -69 callgsubr
          99 300 callsubr
          hlineto
          endchar
        </CharString>
        <CharString name="dvJ_JHA">
          573 822 324 rmoveto
          -261 hlineto
          -34 260 callgsubr
          169 164 91 281 callsubr
          -1061 -99 647 -62 -50 hlineto
          -39 -32 -5 -11 -25 hvcurveto
          -374 -108 102 hlineto
          -101 callgsubr
          87 hlineto
          -1 -6 0 -6 -7 vvcurveto
          -9 344 callsubr
          9 hlineto
          40 callgsubr
          -6 22 -11 12 vhcurveto
          97 -231 -94 callgsubr
          hlineto
          endchar
        </CharString>
        <CharString name="dvJ_J_NYA">
          590 92 380 rmoveto
          102 hlineto
          -101 callgsubr
          103 101 -325 hlineto
          951 177 rmoveto
          -1078 -99 874 -78 -329 -101 104 callsubr
          97 363 callgsubr
        </CharString>
        <CharString name="dvJ_J_VA">
          744 998 -95 callsubr
          199 267 rmoveto
          -1232 -99 1028 8 callsubr
          -38 -30 -6 -12 -24 hvcurveto
          -735 -69 callgsubr
          104 hlineto
          -1 -10 -1 -11 -12 vvcurveto
          -146 vlineto
          -65 callgsubr
        </CharString>
        <CharString name="dvJ_J_YA">
          825 1075 -102 callgsubr
          204 99 rmoveto
          -1314 -99 908 293 callsubr
          -8 -17 -21 -9 vhcurveto
          52 -10 -51 34 -100 hhcurveto
          -598 -69 callgsubr
          22 hlineto
          63 20 -11 -36 hvcurveto
          -74 -67 callsubr
        </CharString>
        <CharString name="dvJ_KA">
          579 1033 566 rmoveto
          99 -1068 -99 667 -403 vlineto
          -105 callsubr
          -35 -29 -6 -11 -22 hvcurveto
          -389 -108 102 hlineto
          -101 callgsubr
          104 hlineto
          -1 -9 -1 -10 -11 vvcurveto
          -158 -83 callgsubr
        </CharString>
        <CharString name="dvJ_MA">
          566 818 173 callgsubr
          405 324 rmoveto
          -1055 -99 650 212 callsubr
          -20 -18 -2 -3 -17 hvcurveto
          33 -21 -47 19 -77 hhcurveto
          -274 -108 102 hlineto
          -101 callgsubr
          29 hlineto
          38 24 -4 -11 13 hvcurveto
          -10 -20 -5 -25 -28 vvcurveto
          -99 vlineto
          1 callgsubr
        </CharString>
        <CharString name="dvJ_NA">
          557 616 207 -104 callsubr
          394 350 rmoveto
          -1045 -99 841 -78 -236 hlineto
          -48 -36 -10 -19 -26 hvcurveto
          21 -27 -43 8 -46 hhcurveto
          -252 -108 102 hlineto
          -101 callgsubr
          55 hlineto
          20 15 -3 -6 11 hvcurveto
          -2 -13 -1 -13 -15 156 callsubr
        </CharString>
        <CharString name="dvJ_NY">
          7 133 387 rmoveto
          104 callsubr
          180 101 -412 hlineto
          -168 177 rmoveto
          -99 580 99 vlineto
          endchar
        </CharString>
        <CharString name="dvJ_NYA">
          213 -35 -10 callgsubr
          -99 497 -78 -329 -101 114 vlineto
          -20 callgsubr
          97 -387 264 callgsubr
        </CharString>
        <CharString name="dvJ_NY_YA">
          524 773 231 rmoveto
          -25 -18 -25 -10 -45 hhcurveto
          -78 -31 30 55 hvcurveto
          39 241 callgsubr
          31 -8 20 -4 3 vhcurveto
          92 281 callsubr
          -1012 -99 587 hlineto
          16 10 -17 -37 hvcurveto
          -49 vlineto
          -30 -7 -17 -20 -10 vhcurveto
          54 -8 -55 28 -91 hhcurveto
          -264 -101 104 callsubr
          23 hlineto
          58 13 -12 -36 1 hvcurveto
          -73 vlineto
          -122 89 -58 129 43 31 6 12 21 vhcurveto
          -104 131 callsubr
        </CharString>
        <CharString name="dvJ_R">
          -21 174 -53 32 callsubr
        </CharString>
        <CharString name="dvJ_RA">
          185 435 20 callsubr
          endchar
        </CharString>
        <CharString name="dvJ_TA">
          417 870 -10 callgsubr
          -905 -99 701 -76 hlineto
          142 callsubr
          -27 -23 -3 -7 -20 hvcurveto
          -426 -108 102 hlineto
          -101 callgsubr
          111 hlineto
          -3 -15 -2 -17 -18 vvcurveto
          -192 vlineto
          -68 callgsubr
        </CharString>
        <CharString name="dvJ_TTA">
          378 734 387 246 callsubr
          -859 -99 651 -72 -21 vlineto
          -22 -20 -2 -4 -18 hvcurveto
          -443 -108 102 hlineto
          -101 callgsubr
          112 hlineto
          -4 -17 -2 -18 -20 vvcurveto
          -165 vlineto
          -52 callgsubr
        </CharString>
        <CharString name="dvJ_VA">
          402 656 -95 callsubr
          199 267 rmoveto
          -890 -99 686 8 callsubr
          -38 -30 -6 -12 -24 hvcurveto
          -393 -108 102 hlineto
          -101 callgsubr
          105 hlineto
          -1 -10 -1 -11 -12 vvcurveto
          -146 vlineto
          -65 callgsubr
        </CharString>
        <CharString name="dvJ_YA">
          480 729 204 rmoveto
          -5 -23 -28 -3 -33 hhcurveto
          -78 137 callgsubr
          329 callsubr
          -969 -99 562 240 callgsubr
          -10 vhcurveto
          51 -11 -51 29 -94 hhcurveto
          -263 -108 102 hlineto
          -101 callgsubr
          19 hlineto
          61 23 -8 -38 hvcurveto
          -75 vlineto
          -122 92 114 callgsubr
        </CharString>
        <CharString name="dvJx">
          -60 41 -72 360 callgsubr
          -15 29 -50 -51 -15 -29 -36 vhcurveto
          376 737 rmoveto
          -452 -99 452 hlineto
          -78 vmoveto
          -325 -108 102 hlineto
          -101 callgsubr
          103 hlineto
          endchar
        </CharString>
        <CharString name="dvJxA">
          164 -9 -59 rmoveto
          261 callgsubr
          -51 -51 -15 -28 -37 vhcurveto
          332 392 72 callsubr
        </CharString>
        <CharString name="dvJx_JxA">
          507 41 14 38 callsubr
          352 hmoveto
          -51 -15 -29 -36 336 callgsubr
          hvcurveto
          567 651 rmoveto
          -995 -99 791 -78 -664 -69 callgsubr
          99 300 callsubr
          hlineto
          endchar
        </CharString>
        <CharString name="dvJx_R">
          -13 8 -7 rmoveto
          -26 callgsubr
          -15 29 -50 246 callgsubr
          171 -46 32 callsubr
        </CharString>
        <CharString name="dvJx_RA">
          190 439 20 callsubr
          -328 -385 rmoveto
          -26 callgsubr
          -15 29 -50 246 callgsubr
          endchar
        </CharString>
        <CharString name="dvJx_YA">
          480 41 14 38 callsubr
          688 190 rmoveto
          -5 -23 -28 -3 -33 hhcurveto
          -78 137 callgsubr
          329 callsubr
          -969 -99 562 240 callgsubr
          -10 vhcurveto
          51 -11 -51 29 -94 hhcurveto
          -263 167 callgsubr
          -105 322 callsubr
          6 -29 vhcurveto
          -106 vlineto
          -7 28 24 304 callsubr
          53 110 hvcurveto
          116 -14 callsubr
          19 hlineto
          61 23 -8 -38 hvcurveto
          -75 vlineto
          -122 92 114 callgsubr
        </CharString>
        <CharString name="dvK">
          -1 469 344 rmoveto
          105 13 hlineto
          91 -35 57 -116 119 callsubr
          vhcurveto
          68 272 99 -673 -99 286 -403 vlineto
          -106 callsubr
          endchar
        </CharString>
        <CharString name="dvKA">
          200 251 163 rmoveto
          -2 -4 -20 -7 -26 hhcurveto
          -43 -11 20 30 hvcurveto
          149 vlineto
          30 11 20 43 6 6 -1 -1 2 vhcurveto
          101 vlineto
          -2 -12 3 -15 hhcurveto
          -105 -46 -51 -97 hvcurveto
          -158 -82 callgsubr
          286 99 -687 -99 286 vlineto
          endchar
        </CharString>
        <CharString name="dvKH">
          145 150 240 -21 callsubr
        </CharString>
        <CharString name="dvKHA">
          357 607 174 callgsubr
          -844 -99 270 hlineto
          0 11 -17 -37 vvcurveto
          -120 vlineto
          -31 -11 -21 -42 -16 -13 1 2 -14 vhcurveto
          105 -113 -260 vlineto
          24 callgsubr
        </CharString>
        <CharString name="dvKH_KHA">
          927 1180 213 rmoveto
          -1 -4 -19 -5 -28 -7 callsubr
          6 vhcurveto
          -676 -42 -35 callsubr
          877 410 rmoveto
          -1416 -102 callsubr
          459 -11 callsubr
          4 vlineto
          97 -43 51 -123 324 callsubr
          vhcurveto
          -92 vlineto
          -99 36 -49 123 25 21 2 4 19 vhcurveto
          -73 25 68 -45 114 hhcurveto
          43 55 7 11 36 hvcurveto
          -1 callgsubr
          50 vlineto
          -3 16 18 -2 17 hhcurveto
          109 323 callgsubr
          -8 -22 callsubr
          260 -74 hlineto
          1 -7 -27 5 -31 98 callgsubr
          37 -51 115 34 20 176 callsubr
          86 vlineto
          endchar
        </CharString>
        <CharString name="dvKH_MA">
          765 1017 124 callgsubr
          -204 -362 rmoveto
          108 callsubr
          -309 6 -35 callsubr
          715 410 rmoveto
          -1254 -102 callsubr
          465 -125 -48 hlineto
          -25 -22 -3 -4 -19 hvcurveto
          40 -21 -43 21 -79 16 callgsubr
          29 24 3 5 19 vhcurveto
          -37 23 42 -21 72 253 callsubr
        </CharString>
        <CharString name="dvKH_NA">
          754 813 207 -104 callsubr
          -309 32 -35 callsubr
          703 410 rmoveto
          -1242 -102 callsubr
          655 -78 -236 hlineto
          -43 -33 -8 -15 -24 hvcurveto
          20 -22 -34 10 -55 16 callgsubr
          29 24 4 7 19 vhcurveto
          -41 23 44 -22 72 142 callgsubr
          -36 callgsubr
        </CharString>
        <CharString name="dvKH_R">
          16 callsubr
          459 65 -32 callsubr
        </CharString>
        <CharString name="dvKH_RA">
          355 607 213 -37 callgsubr
        </CharString>
        <CharString name="dvKH_SHA">
          766 110 callgsubr
          195 99 -578 38 callgsubr
          -116 70 -77 148 44 54 7 11 37 vhcurveto
          111 vlineto
          -14 -35 -42 -8 -48 hhcurveto
          -82 -33 31 57 hvcurveto
          354 124 rmoveto
          30 9 18 43 43 10 -18 -30 vhcurveto
          -59 151 callsubr
          -3 -25 0 1 -29 vhcurveto
          78 -8 -41 41 -110 hhcurveto
          324 callsubr
          hvcurveto
          -59 144 callsubr
          65 vlineto
          -3 113 callsubr
        </CharString>
        <CharString name="dvKH_TA">
          598 504 347 -46 callgsubr
        </CharString>
        <CharString name="dvKH_VA">
          593 848 -95 callsubr
          -344 -51 -35 callsubr
          543 410 rmoveto
          -1082 -102 callsubr
          495 8 callsubr
          -52 -39 -12 -23 -26 hvcurveto
          15 -21 -31 9 -44 16 callgsubr
          30 23 4 8 19 vhcurveto
          -40 23 45 -22 73 64 callgsubr
        </CharString>
        <CharString name="dvKH_YA">
          673 922 204 rmoveto
          -5 -24 -28 -3 -33 hhcurveto
          -78 -34 30 55 hvcurveto
          34 vlineto
          78 3 39 39 79 vvcurveto
          76 vlineto
          32 -7 22 0 vhcurveto
          87 -41 callgsubr
        </CharString>
        <CharString name="dvKHx">
          146 44 -4 rmoveto
          -51 -15 -28 -37 261 callgsubr
          -51 hvcurveto
          106 244 -21 callsubr
        </CharString>
        <CharString name="dvKHxA">
          359 46 8 callgsubr
          565 217 rmoveto
          -1 -3 -20 -5 -27 -7 callsubr
          5 vhcurveto
          202 276 rmoveto
          -848 -99 274 -51 callgsubr
          -12 -21 -42 -15 95 callgsubr
          105 -113 -260 197 callgsubr
          50 vlineto
          -3 16 18 -2 17 hhcurveto
          109 45 103 callsubr
        </CharString>
</ttFont>
